<svg width="40" height="40" viewBox="0 0 40 40" fill="none" xmlns="http://www.w3.org/2000/svg">
<rect x="0.416667" y="0.416667" width="39.1667" height="39.1667" rx="6.25" fill="#F2F2F3"/>
<rect x="0.416667" y="0.416667" width="39.1667" height="39.1667" rx="6.25" stroke="#E4E4E7" stroke-width="0.833333"/>
<path d="M12.7192 25.9615L11.2808 20.6845C11.2436 20.523 11.258 20.3474 11.324 20.1576C11.3901 19.9679 11.5154 19.8422 11.7 19.7807L13 19.3307V14.9999C13 14.5397 13.1542 14.1554 13.4625 13.847C13.7709 13.5387 14.1551 13.3845 14.6154 13.3845H18V10.3845H22V13.3845H25.3847C25.8449 13.3845 26.2292 13.5387 26.5375 13.847C26.8459 14.1554 27 14.5397 27 14.9999V19.3307L28.3 19.7807C28.5218 19.8627 28.6725 19.9945 28.752 20.1759C28.8314 20.3573 28.8462 20.5268 28.7962 20.6845L27.2808 25.9615C26.6782 25.7692 26.1346 25.4868 25.65 25.1143C25.1654 24.7419 24.6154 24.2038 24 23.4999C23.4231 24.191 22.8218 24.7804 22.1962 25.2682C21.5705 25.756 20.8385 25.9999 20 25.9999C19.1616 25.9999 18.4295 25.756 17.8039 25.2682C17.1782 24.7804 16.5769 24.191 16 23.4999C15.3975 24.2038 14.8507 24.7419 14.3596 25.1143C13.8686 25.4868 13.3218 25.7692 12.7192 25.9615ZM10.5 29.9999V28.9999H12C12.7 28.9999 13.3917 28.8916 14.075 28.6749C14.7584 28.4583 15.4 28.1333 16 27.6999C16.6 28.1333 17.2417 28.4499 17.925 28.6499C18.6084 28.8499 19.3 28.9499 20 28.9499C20.7 28.9499 21.3917 28.8499 22.075 28.6499C22.7584 28.4499 23.4 28.1333 24 27.6999C24.6 28.1333 25.2417 28.4583 25.925 28.6749C26.6084 28.8916 27.3 28.9999 28 28.9999H29.5V29.9999H28C27.3 29.9999 26.6167 29.9166 25.95 29.7499C25.2834 29.5833 24.6334 29.3333 24 28.9999C23.3667 29.3333 22.7125 29.5833 22.0375 29.7499C21.3625 29.9166 20.6834 29.9999 20 29.9999C19.3167 29.9999 18.6375 29.9166 17.9625 29.7499C17.2875 29.5833 16.6334 29.3333 16 28.9999C15.3667 29.3333 14.7167 29.5833 14.05 29.7499C13.3834 29.9166 12.7 29.9999 12 29.9999H10.5ZM14 18.9884L20 17.0384L26 18.9884V14.9999C26 14.8204 25.9423 14.673 25.827 14.5576C25.7116 14.4422 25.5641 14.3845 25.3847 14.3845H14.6154C14.4359 14.3845 14.2885 14.4422 14.1731 14.5576C14.0577 14.673 14 14.8204 14 14.9999V18.9884ZM20 24.9999C20.7834 24.9999 21.4395 24.7281 21.9683 24.1845C22.4972 23.6409 23.1744 22.8961 24 21.9499C24.7872 22.8499 25.3257 23.4602 25.6154 23.7807C25.9051 24.1012 26.25 24.3781 26.65 24.6115L27.75 20.6499L20 18.0999L12.2385 20.6499L13.35 24.5999C13.75 24.3666 14.0949 24.0999 14.3846 23.7999C14.6744 23.4999 15.2128 22.8833 16 21.9499C16.8334 22.8999 17.5125 23.6458 18.0375 24.1874C18.5625 24.7291 19.2167 24.9999 20 24.9999Z" fill="#18181B"/>
</svg>
