<svg width="40" height="40" viewBox="0 0 40 40" fill="none" xmlns="http://www.w3.org/2000/svg">
<rect x="0.416667" y="0.416667" width="39.1667" height="39.1667" rx="6.25" fill="#F2F2F3"/>
<rect x="0.416667" y="0.416667" width="39.1667" height="39.1667" rx="6.25" stroke="#E4E4E7" stroke-width="0.833333"/>
<path d="M13.6155 28C13.168 28 12.7868 27.8427 12.472 27.528C12.1573 27.2132 12 26.832 12 26.3845V13.6155C12 13.168 12.1573 12.7868 12.472 12.472C12.7868 12.1573 13.168 12 13.6155 12H18.3155C18.2243 11.4897 18.3464 11.0288 18.6817 10.6173C19.0169 10.2058 19.4563 10 20 10C20.5563 10 21.0022 10.2058 21.3375 10.6173C21.6728 11.0288 21.7885 11.4897 21.6845 12H26.3845C26.832 12 27.2132 12.1573 27.528 12.472C27.8427 12.7868 28 13.168 28 13.6155V26.3845C28 26.832 27.8427 27.2132 27.528 27.528C27.2132 27.8427 26.832 28 26.3845 28H13.6155ZM13.6155 27H26.3845C26.5385 27 26.6796 26.9359 26.8077 26.8078C26.9359 26.6796 27 26.5385 27 26.3845V13.6155C27 13.4615 26.9359 13.3204 26.8077 13.1923C26.6796 13.0641 26.5385 13 26.3845 13H13.6155C13.4615 13 13.3204 13.0641 13.1923 13.1923C13.0641 13.3204 13 13.4615 13 13.6155V26.3845C13 26.5385 13.0641 26.6796 13.1923 26.8078C13.3204 26.9359 13.4615 27 13.6155 27ZM15.5 24.2693H21.5V23.2693H15.5V24.2693ZM15.5 20.5H24.5V19.5H15.5V20.5ZM15.5 16.7307H24.5V15.7307H15.5V16.7307ZM20.5375 12.2298C20.6792 12.0881 20.75 11.9089 20.75 11.6923C20.75 11.4756 20.6792 11.2964 20.5375 11.1548C20.3958 11.0131 20.2167 10.9423 20 10.9423C19.7833 10.9423 19.6042 11.0131 19.4625 11.1548C19.3208 11.2964 19.25 11.4756 19.25 11.6923C19.25 11.9089 19.3208 12.0881 19.4625 12.2298C19.6042 12.3714 19.7833 12.4423 20 12.4423C20.2167 12.4423 20.3958 12.3714 20.5375 12.2298Z" fill="#18181B"/>
</svg>
