<svg width="108" height="64" viewBox="0 0 108 64" fill="none" xmlns="http://www.w3.org/2000/svg">
<g clip-path="url(#clip0_34_2570)">
<path d="M57.5847 37.8214C57.5754 37.8025 57.561 37.7866 57.5432 37.7755C57.5253 37.7643 57.5047 37.7584 57.4837 37.7582H52.9375C48.3282 37.7582 45.9289 37.7582 45.6384 37.6824C45.5367 37.674 45.4393 37.6377 45.3569 37.5775C45.2745 37.5174 45.2102 37.4357 45.1712 37.3415C45.1189 37.2536 45.0913 37.1533 45.0913 37.051C45.0913 36.9488 45.1189 36.8484 45.1712 36.7606C47.9998 32.8309 49.5037 28.1026 49.4648 23.261C49.5055 20.1494 48.9016 17.0632 47.691 14.1965C46.4805 11.3298 44.6895 8.74482 42.4308 6.6043C37.5919 2.23465 31.2699 -0.127081 24.7513 -0.000272684C18.2309 -0.123631 11.9087 2.2427 7.07171 6.61693C4.81141 8.75552 3.01672 11.3375 1.7999 14.2014C0.583075 17.0653 -0.0297071 20.1494 -0.000116875 23.261C-0.0417414 26.3715 0.560539 29.457 1.76887 32.3235C2.97719 35.19 4.76544 37.7756 7.02119 39.9176C11.8613 44.2838 18.1836 46.6411 24.7008 46.5096C28.8481 46.5645 32.9526 45.6658 36.6976 43.8829C36.8029 43.8359 36.9169 43.8116 37.0322 43.8116C37.1476 43.8116 37.2616 43.8359 37.3669 43.8829C40.6201 45.14 44.0831 45.7658 47.5705 45.7266H60.7039C60.7174 45.7344 60.7326 45.7385 60.7481 45.7385C60.7636 45.7385 60.7789 45.7344 60.7923 45.7266C60.8047 45.7127 60.8116 45.6948 60.8116 45.6761C60.8116 45.6575 60.8047 45.6395 60.7923 45.6256L57.5847 37.8214ZM36.6092 32.4165C36.536 32.5198 36.4397 32.6044 36.3278 32.6636C36.2159 32.7229 36.0917 32.755 35.9652 32.7574C35.8408 32.7619 35.7171 32.7381 35.6034 32.6878C35.4896 32.6375 35.3888 32.562 35.3085 32.467C33.9787 30.8535 33.0253 28.964 32.5176 26.9358C32.5149 26.9099 32.5034 26.8858 32.485 26.8674C32.4666 26.849 32.4425 26.8375 32.4166 26.8348H23.5768C23.5631 26.8281 23.548 26.8246 23.5326 26.8246C23.5173 26.8246 23.5022 26.8281 23.4884 26.8348C23.4792 26.8476 23.4742 26.8631 23.4742 26.879C23.4742 26.8948 23.4792 26.9103 23.4884 26.9232C24.0141 30.4845 25.464 33.8458 27.6936 36.6722C27.7847 36.7835 27.8444 36.9171 27.8666 37.0591C27.8888 37.2012 27.8727 37.3466 27.8199 37.4804C27.7631 37.6115 27.6744 37.7264 27.562 37.8146C27.4495 37.9028 27.3168 37.9616 27.1759 37.9855C26.3644 38.1018 25.5458 38.1609 24.726 38.1623C16.2146 38.1623 10.0393 31.8482 10.0393 23.2105C10.0393 14.5727 16.2146 8.30912 24.726 8.30912C33.2375 8.30912 39.4253 14.6232 39.4253 23.261C39.4806 26.5341 38.4945 29.7402 36.6092 32.4165Z" fill="#18181B"/>
<path d="M82.8413 0.783004H60.6914C60.6754 0.77605 60.6582 0.772461 60.6409 0.772461C60.6235 0.772461 60.6063 0.77605 60.5904 0.783004C60.5815 0.80063 60.5768 0.820093 60.5768 0.839831C60.5768 0.859569 60.5815 0.879031 60.5904 0.896658L72.0694 27.0498C72.0781 27.0747 72.0961 27.0953 72.1197 27.1071C72.1433 27.1189 72.1706 27.121 72.1957 27.1129C72.2213 27.1071 72.2441 27.0926 72.2602 27.0719C72.2763 27.0512 72.2848 27.0255 72.2841 26.9993V9.57227C72.2874 9.35677 72.3754 9.15121 72.529 9C72.6825 8.84878 72.8894 8.76404 73.105 8.76406H82.3362C86.4217 8.58468 90.4208 9.97647 93.5122 12.6536C94.9217 14.0262 96.0268 15.68 96.7556 17.5075C97.4844 19.335 97.8207 21.2954 97.7427 23.2613C97.8192 25.227 97.4821 27.1869 96.7534 29.0142C96.0246 30.8415 94.9204 32.4954 93.5122 33.869C90.4176 36.5405 86.4208 37.9315 82.3362 37.7585H76.9061C76.8926 37.7508 76.8774 37.7467 76.8619 37.7467C76.8463 37.7467 76.8311 37.7508 76.8177 37.7585C76.8088 37.7762 76.8042 37.7956 76.8042 37.8154C76.8042 37.8351 76.8088 37.8546 76.8177 37.8722L80.2147 45.6133C80.224 45.6321 80.2384 45.648 80.2562 45.6592C80.2741 45.6703 80.2947 45.6763 80.3157 45.6764H82.8413C97.7553 45.6764 107.77 36.6472 107.77 23.2108C107.77 9.77432 97.7553 0.783004 82.8413 0.783004Z" fill="#18181B"/>
<path d="M56.12 0.858659C56.1103 0.836461 56.0944 0.817516 56.0743 0.804081C56.0541 0.790647 56.0305 0.783291 56.0063 0.78289H46.9266C46.8981 0.77224 46.8667 0.77224 46.8382 0.78289C46.8293 0.800516 46.8247 0.819979 46.8247 0.839717C46.8247 0.859455 46.8293 0.878918 46.8382 0.896544L57.1681 25.7363C57.2118 25.8427 57.2288 25.958 57.2178 26.0725C57.2068 26.1869 57.1681 26.2969 57.105 26.393C57.0429 26.4906 56.957 26.5707 56.8554 26.626C56.7537 26.6812 56.6397 26.7097 56.5241 26.7087H53.266C53.2379 26.7085 53.2108 26.7188 53.1898 26.7374C53.1688 26.7561 53.1555 26.7818 53.1523 26.8097C52.8442 29.2433 52.2025 31.6229 51.2455 33.8815C51.2366 33.8969 51.2319 33.9143 51.2319 33.9321C51.2319 33.9498 51.2366 33.9672 51.2455 33.9826C51.2612 33.9904 51.2785 33.9944 51.296 33.9944C51.3135 33.9944 51.3308 33.9904 51.3465 33.9826H60.06C60.2217 33.9842 60.3794 34.0328 60.5139 34.1225C60.6485 34.2122 60.754 34.3391 60.8177 34.4877L65.4144 45.5627C65.4267 45.5817 65.4436 45.5974 65.4634 45.6084C65.4832 45.6194 65.5054 45.6254 65.528 45.6258H75.6306C75.646 45.6347 75.6634 45.6394 75.6812 45.6394C75.6989 45.6394 75.7163 45.6347 75.7317 45.6258C75.7405 45.6105 75.7452 45.593 75.7452 45.5753C75.7452 45.5576 75.7405 45.5402 75.7317 45.5248L56.12 0.858659Z" fill="#18181B"/>
<path d="M32.9598 55.4001H31.2549L29.1208 61.7143L27.0624 55.4001H25.2186L28.0095 63.8485H29.9921L32.0631 57.7743L34.071 63.899H36.0663L38.8445 55.4507H37.1523L35.0434 61.8153L32.9598 55.4001Z" fill="#18181B"/>
<path d="M46.472 55.2485C45.8776 55.2166 45.2829 55.3061 44.7242 55.5115C44.1655 55.717 43.6546 56.0341 43.2225 56.4436C42.7905 56.8531 42.4464 57.3463 42.2112 57.8931C41.9761 58.4399 41.8548 59.0289 41.8548 59.6242C41.8548 60.2194 41.9761 60.8085 42.2112 61.3553C42.4464 61.9021 42.7905 62.3953 43.2225 62.8048C43.6546 63.2142 44.1655 63.5314 44.7242 63.7369C45.2829 63.9423 45.8776 64.0318 46.472 63.9999C47.0664 64.0318 47.661 63.9423 48.2197 63.7369C48.7784 63.5314 49.2893 63.2142 49.7214 62.8048C50.1534 62.3953 50.4975 61.9021 50.7327 61.3553C50.9678 60.8085 51.0891 60.2194 51.0891 59.6242C51.0891 59.0289 50.9678 58.4399 50.7327 57.8931C50.4975 57.3463 50.1534 56.8531 49.7214 56.4436C49.2893 56.0341 48.7784 55.717 48.2197 55.5115C47.661 55.3061 47.0664 55.2166 46.472 55.2485ZM46.472 62.5224C45.8944 62.5349 45.3263 62.375 44.8401 62.063C44.354 61.751 43.9719 61.3012 43.7427 60.7709C43.5135 60.2407 43.4477 59.6541 43.5535 59.0863C43.6594 58.5184 43.9322 57.995 44.337 57.5829C44.7419 57.1709 45.2604 56.8889 45.8263 56.7731C46.3922 56.6572 46.9798 56.7127 47.514 56.9326C48.0482 57.1524 48.5048 57.5265 48.8253 58.007C49.1458 58.4876 49.3157 59.0529 49.3133 59.6305C49.329 60.0102 49.2666 60.389 49.13 60.7436C48.9934 61.0982 48.7855 61.421 48.5192 61.692C48.2529 61.9631 47.9338 62.1766 47.5816 62.3195C47.2295 62.4623 46.8518 62.5313 46.472 62.5224Z" fill="#18181B"/>
<path d="M60.8303 61.0702C61.3567 60.8638 61.8059 60.499 62.1158 60.0262C62.4257 59.5534 62.5811 58.9959 62.5604 58.4309C62.5604 56.5619 61.146 55.4001 58.8856 55.4001H55.2234V63.8485H57.0166V61.4365H59.0497L60.7293 63.8485H62.6109L60.7041 61.1334L60.8303 61.0702ZM58.7719 60.06H57.0166V56.8019H58.7719C60.0348 56.8019 60.7419 57.3828 60.7419 58.4309C60.7419 59.4791 60.0221 60.06 58.7719 60.06Z" fill="#18181B"/>
<path d="M74.4688 55.4001H72.5367L68.5083 59.6306V55.4001H66.7404V63.8485H68.5083V61.7269L69.7711 60.3883L72.6125 63.8485H74.6709L70.8824 59.1507L74.4688 55.4001Z" fill="#18181B"/>
<path d="M81.6669 58.9486C80.5935 58.7087 79.6843 58.494 79.6843 57.6858C79.6843 57.3575 79.8484 56.5872 81.4522 56.5872C82.2792 56.6011 83.0901 56.8179 83.8137 57.2186L84.3441 55.9557C83.4676 55.4716 82.4786 55.2276 81.4775 55.2486C78.8508 55.2486 77.9163 56.5872 77.9163 57.7742C77.9163 59.5674 79.558 59.9463 80.9976 60.2999C82.071 60.5398 82.9929 60.7545 82.9929 61.5627C82.9929 61.9542 82.7529 62.6108 81.187 62.6108C80.1837 62.5981 79.2039 62.3051 78.3583 61.7647L77.7774 63.0276C78.7995 63.6506 79.9776 63.9703 81.1744 63.9494C83.3591 63.9494 84.7608 62.9392 84.7608 61.4238C84.7608 59.6558 83.1192 59.277 81.6669 58.9486Z" fill="#18181B"/>
</g>
<defs>
<clipPath id="clip0_34_2570">
<rect width="107.77" height="64" fill="white"/>
</clipPath>
</defs>
</svg>
