<svg width="40" height="40" viewBox="0 0 40 40" fill="none" xmlns="http://www.w3.org/2000/svg">
<rect x="0.416667" y="0.416667" width="39.1667" height="39.1667" rx="6.25" fill="#F2F2F3"/>
<rect x="0.416667" y="0.416667" width="39.1667" height="39.1667" rx="6.25" stroke="#E4E4E7" stroke-width="0.833333"/>
<path d="M13 23.1154V14C13 13.3474 13.1875 12.8228 13.5625 12.426C13.9375 12.0292 14.4455 11.7253 15.0865 11.5144C15.7276 11.3035 16.4728 11.1651 17.3221 11.099C18.1715 11.033 19.0641 11 20 11C20.9718 11 21.8811 11.033 22.7279 11.099C23.5747 11.1651 24.3157 11.3035 24.951 11.5144C25.5862 11.7253 26.0865 12.0292 26.4519 12.426C26.8173 12.8228 27 13.3474 27 14V23.1154C27 23.9192 26.7202 24.601 26.1606 25.1606C25.601 25.7202 24.9192 26 24.1154 26L25.6154 27.5V28H24.7692L22.7692 26H17.2308L15.2308 28H14.3846V27.5L15.8846 26C15.0808 26 14.399 25.7202 13.8394 25.1606C13.2798 24.601 13 23.9192 13 23.1154ZM20 12C18.041 12 16.6148 12.1298 15.7212 12.3894C14.8276 12.649 14.2885 13.0321 14.1039 13.5385H25.9192C25.7462 13.0244 25.2119 12.6394 24.3164 12.3837C23.4208 12.1279 21.9821 12 20 12ZM14 19H19.5V14.5385H14V19ZM24.1154 20H14H26H24.1154ZM20.5 19H26V14.5385H20.5V19ZM16.5 23.6154C16.818 23.6154 17.0833 23.509 17.2962 23.2962C17.509 23.0833 17.6154 22.818 17.6154 22.5C17.6154 22.182 17.509 21.9167 17.2962 21.7038C17.0833 21.491 16.818 21.3846 16.5 21.3846C16.1821 21.3846 15.9167 21.491 15.7039 21.7038C15.491 21.9167 15.3846 22.182 15.3846 22.5C15.3846 22.818 15.491 23.0833 15.7039 23.2962C15.9167 23.509 16.1821 23.6154 16.5 23.6154ZM23.5 23.6154C23.818 23.6154 24.0833 23.509 24.2962 23.2962C24.509 23.0833 24.6154 22.818 24.6154 22.5C24.6154 22.182 24.509 21.9167 24.2962 21.7038C24.0833 21.491 23.818 21.3846 23.5 21.3846C23.1821 21.3846 22.9167 21.491 22.7039 21.7038C22.491 21.9167 22.3846 22.182 22.3846 22.5C22.3846 22.818 22.491 23.0833 22.7039 23.2962C22.9167 23.509 23.1821 23.6154 23.5 23.6154ZM15.8846 25H24.1154C24.6385 25 25.0833 24.8167 25.45 24.45C25.8167 24.0833 26 23.6385 26 23.1154V20H14V23.1154C14 23.6385 14.1833 24.0833 14.55 24.45C14.9167 24.8167 15.3615 25 15.8846 25ZM20 13.5385H25.9192H14.1039H20Z" fill="#18181B"/>
</svg>
