<svg width="40" height="40" viewBox="0 0 40 40" fill="none" xmlns="http://www.w3.org/2000/svg">
<rect x="0.416667" y="0.416667" width="39.1667" height="39.1667" rx="6.25" fill="#F2F2F3"/>
<rect x="0.416667" y="0.416667" width="39.1667" height="39.1667" rx="6.25" stroke="#E4E4E7" stroke-width="0.833333"/>
<path d="M15.7308 24.5H16.7308V20H15.7308V24.5ZM23.2693 24.5H24.2693V15H23.2693V24.5ZM19.5 24.5H20.5V22H19.5V24.5ZM19.5 20H20.5V18H19.5V20ZM13.6155 28C13.1552 28 12.7708 27.8458 12.4625 27.5375C12.1542 27.2292 12 26.8448 12 26.3845V13.6155C12 13.1552 12.1542 12.7708 12.4625 12.4625C12.7708 12.1542 13.1552 12 13.6155 12H26.3845C26.8448 12 27.2292 12.1542 27.5375 12.4625C27.8458 12.7708 28 13.1552 28 13.6155V26.3845C28 26.8448 27.8458 27.2292 27.5375 27.5375C27.2292 27.8458 26.8448 28 26.3845 28H13.6155ZM13.6155 27H26.3845C26.5385 27 26.6796 26.9359 26.8077 26.8077C26.9359 26.6796 27 26.5385 27 26.3845V13.6155C27 13.4615 26.9359 13.3204 26.8077 13.1923C26.6796 13.0641 26.5385 13 26.3845 13H13.6155C13.4615 13 13.3204 13.0641 13.1923 13.1923C13.0641 13.3204 13 13.4615 13 13.6155V26.3845C13 26.5385 13.0641 26.6796 13.1923 26.8077C13.3204 26.9359 13.4615 27 13.6155 27Z" fill="#18181B"/>
</svg>
