<svg width="40" height="40" viewBox="0 0 40 40" fill="none" xmlns="http://www.w3.org/2000/svg">
<rect x="0.416667" y="0.416667" width="39.1667" height="39.1667" rx="6.25" fill="#F2F2F3"/>
<rect x="0.416667" y="0.416667" width="39.1667" height="39.1667" rx="6.25" stroke="#E4E4E7" stroke-width="0.833333"/>
<path d="M20 17.9596C23.866 17.9596 27 17.2195 27 16.3065C27 15.3935 23.866 14.6533 20 14.6533C16.134 14.6533 13 15.3935 13 16.3065C13 17.2195 16.134 17.9596 20 17.9596Z" stroke="#18181B" stroke-miterlimit="10" stroke-linecap="round" stroke-linejoin="round"/>
<path d="M27 25.9152V14.085C27 13.1551 23.8745 12.406 20 12.406C16.1255 12.406 13 13.1551 13 14.085V25.941C13 26.8451 16.1255 27.5942 20 27.5942C23.8745 27.5942 27 26.8451 27 25.9152Z" stroke="#18181B" stroke-miterlimit="10" stroke-linecap="round" stroke-linejoin="round"/>
<path d="M20 12.406V14.6532" stroke="#18181B" stroke-miterlimit="10" stroke-linecap="round" stroke-linejoin="round"/>
<path d="M17.4428 14.7566V12.6643" stroke="#18181B" stroke-miterlimit="10" stroke-linecap="round" stroke-linejoin="round"/>
<path d="M22.5572 14.7566V12.6643" stroke="#18181B" stroke-miterlimit="10" stroke-linecap="round" stroke-linejoin="round"/>
<path d="M15.1697 15.0922V12.8708" stroke="#18181B" stroke-miterlimit="10" stroke-linecap="round" stroke-linejoin="round"/>
<path d="M24.8303 15.0922V12.8708" stroke="#18181B" stroke-miterlimit="10" stroke-linecap="round" stroke-linejoin="round"/>
<path d="M24.6605 18V25.6974" stroke="#18181B" stroke-miterlimit="10" stroke-linecap="round" stroke-linejoin="round"/>
<path d="M22 18.6611V26.2397" stroke="#18181B" stroke-miterlimit="10" stroke-linecap="round" stroke-linejoin="round"/>
<path d="M22 19.9371L24.6605 19.4722" stroke="#18181B" stroke-miterlimit="10" stroke-linecap="round" stroke-linejoin="round"/>
<path d="M22 21.5127L24.6605 21.022" stroke="#18181B" stroke-miterlimit="10" stroke-linecap="round" stroke-linejoin="round"/>
<path d="M22 23.0626L24.6605 22.5718" stroke="#18181B" stroke-miterlimit="10" stroke-linecap="round" stroke-linejoin="round"/>
<path d="M22 24.6382L24.6605 24.1475" stroke="#18181B" stroke-miterlimit="10" stroke-linecap="round" stroke-linejoin="round"/>
</svg>
