<svg width="40" height="40" viewBox="0 0 40 40" fill="none" xmlns="http://www.w3.org/2000/svg">
<rect x="0.416667" y="0.416667" width="39.1667" height="39.1667" rx="6.25" fill="#F2F2F3"/>
<rect x="0.416667" y="0.416667" width="39.1667" height="39.1667" rx="6.25" stroke="#E4E4E7" stroke-width="0.833333"/>
<path d="M13.6878 27.1154C12.96 27.1154 12.343 26.8611 11.8366 26.3526C11.3302 25.844 11.0769 25.2265 11.0769 24.5H9.69232V14.6154C9.69232 14.1551 9.84649 13.7708 10.1548 13.4625C10.4632 13.1542 10.8475 13 11.3077 13H24.5385V16.6154H26.8462L30.3077 21.2692V24.5H28.6923C28.6923 25.2265 28.4376 25.844 27.9282 26.3526C27.4188 26.8611 26.8002 27.1154 26.0724 27.1154C25.3447 27.1154 24.7276 26.8611 24.2212 26.3526C23.7148 25.844 23.4615 25.2265 23.4615 24.5H16.3077C16.3077 25.2308 16.053 25.8494 15.5436 26.3558C15.0342 26.8622 14.4156 27.1154 13.6878 27.1154ZM13.6923 26.1154C14.1423 26.1154 14.5241 25.9586 14.8375 25.6452C15.151 25.3317 15.3077 24.95 15.3077 24.5C15.3077 24.05 15.151 23.6683 14.8375 23.3548C14.5241 23.0414 14.1423 22.8846 13.6923 22.8846C13.2423 22.8846 12.8606 23.0414 12.5471 23.3548C12.2337 23.6683 12.0769 24.05 12.0769 24.5C12.0769 24.95 12.2337 25.3317 12.5471 25.6452C12.8606 25.9586 13.2423 26.1154 13.6923 26.1154ZM10.6923 23.5H11.3385C11.4808 23.059 11.7705 22.6795 12.2077 22.3615C12.6449 22.0436 13.1398 21.8846 13.6923 21.8846C14.2193 21.8846 14.7077 22.0404 15.1577 22.3519C15.6077 22.6635 15.9039 23.0461 16.0462 23.5H23.5385V14H11.3077C11.1539 14 11.0128 14.0641 10.8846 14.1923C10.7564 14.3205 10.6923 14.4615 10.6923 14.6154V23.5ZM26.0769 26.1154C26.5269 26.1154 26.9087 25.9586 27.2221 25.6452C27.5356 25.3317 27.6923 24.95 27.6923 24.5C27.6923 24.05 27.5356 23.6683 27.2221 23.3548C26.9087 23.0414 26.5269 22.8846 26.0769 22.8846C25.6269 22.8846 25.2452 23.0414 24.9317 23.3548C24.6183 23.6683 24.4616 24.05 24.4616 24.5C24.4616 24.95 24.6183 25.3317 24.9317 25.6452C25.2452 25.9586 25.6269 26.1154 26.0769 26.1154ZM24.5385 21.5H29.25L26.3077 17.6154H24.5385V21.5Z" fill="#18181B"/>
</svg>
