<?xml version="1.0" encoding="UTF-8"?>
<svg id="Layer_1" data-name="Layer 1" xmlns="http://www.w3.org/2000/svg" xmlns:xlink="http://www.w3.org/1999/xlink" viewBox="0 0 700.972 177.641">
  <defs>
    <style>
      .cls-1 {
        fill: url(#linear-gradient-2);
      }

      .cls-2 {
        fill: #231f20;
      }

      .cls-3 {
        fill: url(#linear-gradient);
      }
    </style>
    <linearGradient id="linear-gradient" x1="583.986" y1="-60.462" x2="583.986" y2="170.721" gradientUnits="userSpaceOnUse">
      <stop offset="0" stop-color="#4cbc95"/>
      <stop offset=".586" stop-color="#47b493"/>
      <stop offset=".66" stop-color="#39aa8e"/>
      <stop offset=".881" stop-color="#178f84"/>
      <stop offset="1" stop-color="#0a8680"/>
    </linearGradient>
    <linearGradient id="linear-gradient-2" x1="604.591" y1="-60.462" x2="604.591" y2="170.721" xlink:href="#linear-gradient"/>
  </defs>
  <g>
    <path class="cls-3" d="M583.945,0c-74.976,0-116.945,27.637-116.945,32.344v143.226c0,1.144.928,2.072,2.072,2.072h229.827c1.144,0,2.072-.927,2.072-2.072V32.344c0-4.707-42.05-32.344-117.027-32.344ZM536.686,157.732h-32.737V38.535h32.737v119.197ZM637.58,157.732l-5.372-5.708c-4.142,2.127-8.535,3.751-13.179,4.868-4.646,1.117-9.543,1.679-14.689,1.679-9.066,0-17.292-1.705-24.679-5.121-7.387-3.413-13.712-7.945-18.971-13.599-5.262-5.65-9.346-12.113-12.255-19.39-2.912-7.274-4.365-14.774-4.365-22.497,0-7.833,1.511-15.387,4.532-22.664,3.022-7.273,7.245-13.708,12.675-19.306,5.427-5.595,11.862-10.044,19.306-13.347,7.442-3.3,15.585-4.952,24.427-4.952,9.066,0,17.292,1.763,24.679,5.288,7.387,3.526,13.709,8.143,18.971,13.85,5.259,5.708,9.317,12.2,12.171,19.474,2.854,7.277,4.281,14.719,4.281,22.329,0,7.387-1.318,14.466-3.946,21.237-2.631,6.772-6.353,12.843-11.163,18.215l18.131,19.642h-30.555Z"/>
    <path class="cls-1" d="M625.073,76.309c-2.295-2.909-5.149-5.23-8.563-6.967-3.415-1.734-7.415-2.603-12.003-2.603-4.701,0-8.759.923-12.171,2.771-3.416,1.847-6.241,4.255-8.478,7.219-2.24,2.967-3.891,6.325-4.953,10.073-1.065,3.751-1.595,7.584-1.595,11.5,0,4.029.559,7.919,1.679,11.668,1.117,3.751,2.797,7.081,5.037,9.989,2.237,2.911,5.062,5.233,8.478,6.967,3.413,1.737,7.471,2.602,12.171,2.602,2.461,0,4.533-.222,6.212-.671l-19.642-21.489h30.555l6.548,7.219c1.23-2.573,2.124-5.259,2.686-8.058.559-2.796.839-5.65.839-8.562,0-4.029-.561-7.916-1.679-11.668-1.12-3.748-2.827-7.077-5.12-9.989Z"/>
  </g>
  <g>
    <path class="cls-2" d="M85.901,95.922c-3.164,5.705-8.021,10.309-14.571,13.809-6.552,3.502-14.685,5.252-24.398,5.252h-17.96v42.697H0V38.74h46.932c9.488,0,17.507,1.639,24.059,4.913,6.55,3.278,11.463,7.794,14.74,13.555,3.275,5.761,4.913,12.368,4.913,19.823,0,6.891-1.583,13.189-4.744,18.892ZM57.098,88.044c2.711-2.597,4.066-6.269,4.066-11.013s-1.355-8.413-4.066-11.013c-2.711-2.597-6.835-3.896-12.368-3.896h-15.757v29.82h15.757c5.533,0,9.657-1.297,12.368-3.897Z"/>
    <path class="cls-2" d="M194.844,63.138v94.542h-28.973v-12.877c-2.938,4.181-6.92,7.54-11.945,10.081-5.027,2.542-10.589,3.812-16.689,3.812-7.23,0-13.613-1.609-19.146-4.829-5.536-3.219-9.827-7.878-12.877-13.978-3.05-6.1-4.575-13.271-4.575-21.518v-55.234h28.803v51.337c0,6.327,1.636,11.241,4.914,14.741,3.275,3.502,7.68,5.252,13.216,5.252,5.647,0,10.107-1.75,13.385-5.252,3.275-3.5,4.913-8.414,4.913-14.741v-51.337h28.973Z"/>
    <path class="cls-2" d="M240.42,32.301v125.379h-28.973V32.301h28.973Z"/>
    <path class="cls-2" d="M273.628,154.8c-6.438-2.822-11.521-6.693-15.249-11.606-3.728-4.914-5.819-10.42-6.269-16.52h28.634c.339,3.277,1.864,5.93,4.575,7.963s6.041,3.05,9.996,3.05c3.614,0,6.409-.704,8.387-2.117,1.975-1.411,2.965-3.246,2.965-5.507,0-2.711-1.414-4.715-4.236-6.015-2.825-1.297-7.399-2.737-13.724-4.32-6.777-1.581-12.427-3.246-16.943-4.998-4.519-1.75-8.416-4.517-11.691-8.303-3.277-3.783-4.914-8.895-4.914-15.333,0-5.422,1.496-10.362,4.49-14.825,2.991-4.461,7.397-7.99,13.216-10.589,5.816-2.597,12.734-3.897,20.755-3.897,11.86,0,21.205,2.938,28.041,8.81,6.833,5.875,10.759,13.668,11.775,23.381h-26.77c-.453-3.274-1.893-5.872-4.32-7.793-2.43-1.919-5.62-2.88-9.573-2.88-3.388,0-5.988.651-7.794,1.948-1.808,1.3-2.711,3.079-2.711,5.337,0,2.71,1.44,4.744,4.321,6.099s7.37,2.711,13.47,4.066c7.002,1.808,12.707,3.587,17.113,5.337,4.405,1.753,8.273,4.575,11.606,8.472,3.33,3.897,5.054,9.123,5.167,15.673,0,5.535-1.554,10.478-4.659,14.825-3.108,4.35-7.569,7.768-13.385,10.251-5.819,2.483-12.567,3.728-20.247,3.728-8.246,0-15.588-1.411-22.026-4.235Z"/>
    <path class="cls-2" d="M436.111,117.356h-65.57c.45,5.874,2.343,10.364,5.676,13.47,3.33,3.107,7.426,4.659,12.284,4.659,7.227,0,12.255-3.05,15.079-9.149h30.836c-1.583,6.214-4.434,11.805-8.556,16.774-4.125,4.972-9.292,8.869-15.503,11.691-6.213,2.824-13.16,4.235-20.84,4.235-9.263,0-17.51-1.975-24.737-5.93-7.23-3.953-12.877-9.6-16.943-16.944-4.066-7.341-6.099-15.927-6.099-25.753s2.004-18.41,6.015-25.753c4.008-7.341,9.628-12.988,16.858-16.943,7.227-3.952,15.529-5.93,24.906-5.93,9.149,0,17.282,1.922,24.398,5.76,7.116,3.841,12.678,9.319,16.689,16.435,4.008,7.116,6.015,15.418,6.015,24.906,0,2.711-.169,5.535-.508,8.472ZM406.969,101.259c0-4.969-1.694-8.921-5.083-11.86-3.389-2.936-7.624-4.405-12.707-4.405-4.858,0-8.953,1.414-12.284,4.236-3.333,2.825-5.395,6.835-6.184,12.029h36.258Z"/>
  </g>
</svg>