<?xml version="1.0" encoding="UTF-8"?><svg id="Layer_1" xmlns="http://www.w3.org/2000/svg" width="363.903" height="268.985" viewBox="0 0 363.903 268.985"><defs><style>.cls-1{fill:#04447d;}.cls-2{fill:#02437b;}</style></defs><path class="cls-2" d="M91.328,91.861c-.778-25.928,12.566-46.053,35.119-57.699,18.811-9.714,44.025-21.86,63.598-29.505,17.681-6.907,36.264-6.364,52.875,3.195,1.434.825,10.879,7.326,11.055,8.02.212.836-.729,1.195-1.286,1.512-10.032,5.714-21.697,9.119-31.805,14.792-7.429-1.682-13.268-.564-20.182,2.206-18.247,7.31-39.653,17.881-57.417,26.712-4.069,2.023-8.912,4.243-12.161,7.469-2.111,2.097-4.146,6.681-5.947,8.075-4.183,3.237-23.009,11.08-28.987,13.639-.754.323-4.484,1.982-4.862,1.583Z"/><path class="cls-2" d="M273.042,55.971c-.694,6.19-.493,11.822-1.955,17.95-4.205,17.621-16.702,31.112-32.434,39.356-18.763,9.832-43.198,21.165-62.818,29.163-18.311,7.465-36.906,7.296-54.38-2.465-1.641-.917-10.813-6.922-11.055-8.02-.208-.94,1.041-1.358,1.65-1.701,9.672-5.45,21.632-9.038,31.422-14.581,7.423,1.699,13.296.539,20.188-2.235,16.143-6.498,34.269-15.696,50.136-23.337,6.09-2.933,15.056-6.412,19.732-11.115,1.891-1.902,4.128-6.591,5.659-7.802,3.607-2.855,23.488-11.275,28.994-13.632.757-.324,4.478-1.981,4.862-1.582Z"/><path class="cls-2" d="M291.553,5.491v35.054c-23.252,11.85-47.352,22.076-70.848,33.473-19.03,8.163-32.9-17.108-15.694-28.594,26.967-12.295,53.484-25.731,80.554-37.788,1.841-.82,4.001-1.888,5.988-2.144Z"/><path class="cls-2" d="M72.817,142.341v-35.895c.726.046,1.408-.138,2.06-.442,21.044-9.809,42.483-20.882,63.742-29.944,2.929-1.249,6.69-3.276,9.777-3.68,15.873-2.079,24.794,16.446,13.876,27.894-27.399,13.825-55.358,27.402-83.467,39.922-1.841.82-4.001,1.888-5.988,2.144Z"/><path class="cls-1" d="M78.428,196.188c6.263-.024,12.54.009,18.81.019,7.321.011,14.109-.794,21.447,1.502,25.549,7.993,26.565,48.171,7.367,63.208-12.535,9.819-27.258,5.482-41.764,5.909-1.552.046-4.775,1.215-5.621.04.66-6.243.168-12.555.297-18.825.331-16.2,1.211-33.114.025-49.334-.064-.874-.514-1.652-.561-2.519ZM92.444,261.247c6.879.489,13.454,1.709,19.814-1.785,12.982-7.132,15.653-27.844,11.881-40.846-3.489-12.025-12.95-17.526-25.213-17.405-1.2.012-6.114.632-6.4,1.502l-.082,58.534Z"/><path class="cls-1" d="M30.637,195.227c29.413-3.005,44.799,20.309,38.088,47.623-8.86,36.063-62.29,34.498-68.107-2.79-3.34-21.412,6.878-42.469,30.018-44.833ZM21.977,258.242c10.308,10.47,25.994,5.012,31.084-8.061,6.599-16.951,4.813-52.349-20.909-49.514-21.287,2.347-22.022,45.541-10.175,57.574Z"/><path class="cls-1" d="M243.88,260.683l24.676-.557c-.826,2.442-.673,4.543.011,6.999l-38.711.291.003-71.795,38.136.006c-.766,2.364-.577,4.832-.556,7.29l-23.559-.564v24.678l22.443-.834c-.91,2.239-.509,4.652-.566,7.006l-21.877-.564v28.043Z"/><path class="cls-1" d="M187.794,195.623v7.852l-25.239-1.122v24.117l23.554-.562.006,7.295-23.562-.567.561,34.774c-4.762-.858-9.804-.86-14.576,0,1.744-23.874,1.158-47.861-.002-71.79l39.26.002Z"/><path class="cls-1" d="M293.797,196.184l-1.043,63.58,1.323.921c8.336.14,16.664-.446,24.957-1.119-.807,2.648-.805,5.2,0,7.844-13.201-.908-26.635-.837-39.822.006l.002-71.232h14.582Z"/><path class="cls-1" d="M338.666,196.184l-1.043,63.58,1.323.921c8.336.14,16.664-.446,24.957-1.119-.807,2.648-.805,5.2,0,7.844-13.205-.944-26.629-.784-39.822.006l.003-71.232h14.582Z"/><path class="cls-1" d="M214.996,196.184c.199-.008,1.193-1.115,1.405-.278-1.697,16.16.459,32.641-.54,48.817-.721,11.669-2.898,19.756-15.163,22.976-7.694,2.02-14.41,1.285-21.809-1.474l.495-12.269c3.132.318,4.164,4.271,6.777,6.398,7.712,6.278,15.388,2.663,16.235-7.221,1.291-15.068.015-34.664-.575-49.943-.09-2.331.049-4.679-.006-7.005,4.377-.127,8.801.172,13.18,0Z"/></svg>