<?xml version="1.0" encoding="utf-8"?>
<!-- Generator: Adobe Illustrator 22.1.0, SVG Export Plug-In . SVG Version: 6.00 Build 0)  -->
<svg version="1.1" id="Layer_1" xmlns="http://www.w3.org/2000/svg" xmlns:xlink="http://www.w3.org/1999/xlink" x="0px" y="0px"
	 viewBox="0 0 109.7 90" style="enable-background:new 0 0 109.7 90;" xml:space="preserve">
<style type="text/css">
	.st0{fill:#FFFFFF;}
	.st1{fill:#00437A;}
</style>
<rect class="st0" width="109.7" height="90"/>
<path class="st1" d="M15.4,80.8c-0.2,0-0.5-0.1-0.7-0.1c-2.1-0.2-3.9-1-5.4-2.4c-1.2-1.2-2-2.7-2.4-4.3c-0.3-1.5-0.4-3-0.2-4.5
	C6.9,68,7.3,66.7,8,65.4c1.1-1.8,2.6-3.1,4.6-3.7c2.3-0.7,4.7-0.7,7,0.1c2.7,1,4.4,2.9,5.2,5.7c0.3,0.9,0.4,1.9,0.4,2.8
	c0,1.6-0.2,3.2-0.8,4.7c-1.2,3-3.3,4.8-6.4,5.5c-0.5,0.1-0.9,0.1-1.4,0.2c-0.1,0-0.1,0-0.2,0C16.1,80.8,15.7,80.8,15.4,80.8z
	 M21.4,70.7c0-0.4,0-0.9-0.1-1.5c-0.1-1.2-0.3-2.3-0.7-3.4c-1.1-2.6-3.2-3.4-5.5-3.1c-1.5,0.2-2.5,1-3.3,2.2
	c-0.9,1.5-1.3,3.1-1.4,4.8c-0.1,1-0.1,2.1,0,3.1c0.1,1.1,0.3,2.2,0.8,3.3c0.4,1.1,1.1,2,2.1,2.6c0.9,0.5,1.8,0.7,2.8,0.7
	c1,0,1.9-0.3,2.7-0.9c0.9-0.7,1.5-1.7,1.9-2.8C21.3,74.1,21.4,72.5,21.4,70.7z"/>
<path class="st1" d="M103.2,80.4c-2.1-0.1-4.2-0.1-6.3-0.1c-1.4,0-2.7,0.1-4.1,0.1c-0.1,0-0.1,0-0.3,0c0.3-6.3,0.3-12.6,0-19
	c1.3,0.2,2.6,0.2,3.9,0c-0.3,5.7-0.4,11.4-0.2,17.2c0.1,0,0.2,0,0.2,0c1,0,2.1,0,3.1,0c1.1,0,2.2-0.1,3.3-0.2c0.1,0,0.1,0,0.2,0
	c0,0,0,0.1,0,0.1c0,0.2-0.1,0.5-0.1,0.7C103.1,79.5,103,80,103.2,80.4C103.2,80.4,103.2,80.4,103.2,80.4z"/>
<path class="st1" d="M56.9,80.8c-0.3-0.1-0.7-0.1-1-0.2c-0.6-0.2-1.2-0.3-1.8-0.5c0-0.3,0.1-0.7,0.1-1c0-0.7,0-1.3,0-2
	c0-0.1-0.1-0.2,0.1-0.2c0.1,0,0.3-0.1,0.4,0.1c0.4,0.6,0.9,1.2,1.4,1.7c0.7,0.6,1.6,0.8,2.5,0.7c0.7-0.1,1.1-0.5,1.4-1.2
	c0.3-0.6,0.4-1.3,0.4-1.9c0-0.6,0-1.2,0-1.8c0-0.1,0-0.3,0-0.4c0-1.1,0-2.2,0-3.3c0-1.8,0-3.6,0-5.5c0-1.2-0.1-2.3-0.2-3.4
	c0-0.1,0-0.3,0-0.5c1.3,0.2,2.6,0.2,3.8,0c0,0.4,0,0.7,0,1c0,0.9-0.1,1.7-0.1,2.6c0,2.1,0,4.2,0,6.3c0,1.1,0,2.2,0,3.3
	c0,1-0.2,2-0.5,3c-0.4,1.4-1.4,2.2-2.7,2.7c-0.8,0.3-1.6,0.4-2.4,0.5c-0.1,0-0.1,0-0.2,0C57.6,80.8,57.3,80.8,56.9,80.8z"/>
<path class="st1" d="M103.2,80.3c-0.2-0.4-0.1-0.8-0.1-1.2c0-0.2,0.1-0.5,0.1-0.7C103.2,79.1,103.2,79.7,103.2,80.3z"/>
<path class="st1" d="M30.9,33.8c0-0.7,0-1.3,0-2c0.1-1.4,0.4-2.8,0.8-4.2c0.5-1.4,1.1-2.6,1.9-3.8c0.7-1,1.4-1.9,2.3-2.6
	c0.8-0.8,1.7-1.4,2.7-2c1.7-1,3.6-1.8,5.4-2.6c4.1-1.9,8.3-3.9,12.4-5.8c1.4-0.6,2.8-1.1,4.2-1.3c0.7-0.1,1.4-0.1,2-0.2
	c1.1-0.1,2.2,0,3.3,0.2c1.1,0.2,2.2,0.5,3.3,0.9c1.1,0.5,2.1,1,3.1,1.7c0.6,0.4,1.2,1,1.8,1.5c-0.1,0-0.1,0.1-0.1,0.1
	c-2.8,1.3-5.7,2.6-8.5,4c-0.3,0.1-0.5,0.2-0.8,0.1c-0.7-0.2-1.4-0.2-2.1-0.1c-0.8,0.1-1.5,0.3-2.3,0.6c-0.9,0.4-1.7,0.8-2.6,1.2
	c-3.8,1.8-7.7,3.6-11.5,5.4c-0.9,0.4-1.8,0.8-2.6,1.2c-1.2,0.6-2.3,1.4-3,2.5c-0.2,0.3-0.4,0.6-0.6,1c0,0.1-0.1,0.1-0.2,0.2
	c-2.9,1.4-5.9,2.7-8.8,4.1C30.9,33.8,30.9,33.8,30.9,33.8z"/>
<path class="st1" d="M35.7,44.3c0.6-0.3,1.1-0.5,1.6-0.8c2.4-1.1,4.8-2.2,7.2-3.3c0.3-0.1,0.5-0.1,0.8,0c1,0.2,2,0.2,3-0.1
	c0.7-0.2,1.3-0.4,2-0.7c5.4-2.5,10.7-5,16.1-7.5c1.2-0.6,2.2-1.4,3-2.5c0.2-0.3,0.4-0.6,0.6-0.9c0.1-0.1,0.1-0.2,0.2-0.2
	c2.9-1.4,5.8-2.7,8.7-4.1c0,0,0.1,0,0.2-0.1c0,0.6,0,1.2,0,1.7c0,0.9-0.2,1.9-0.4,2.8c-0.1,0.5-0.3,1-0.5,1.5c-0.5,1.4-1.2,2.7-2,4
	c-0.6,0.9-1.4,1.8-2.2,2.6c-0.9,0.8-1.8,1.5-2.9,2.1c-1.7,0.9-3.4,1.7-5.2,2.5c-4.2,2-8.3,3.9-12.5,5.8c-0.8,0.4-1.6,0.7-2.4,0.9
	c-1.1,0.3-2.3,0.6-3.5,0.6c-0.5,0-1,0.1-1.5,0c-1.4-0.1-2.7-0.3-4-0.7c-0.8-0.2-1.5-0.5-2.2-0.9c-0.7-0.3-1.4-0.7-2-1.2
	c-0.5-0.4-1-0.8-1.5-1.2C36,44.5,35.9,44.4,35.7,44.3z"/>
<path class="st1" d="M84,10.7c0,0.1,0,0.2,0,0.2c0,3,0,6,0,9.1c0,0.2-0.1,0.3-0.2,0.4c-4.3,2-8.6,4-12.9,6c-1.9,0.9-3.8,1.8-5.7,2.6
	c-0.8,0.4-1.7,0.6-2.6,0.4c-1-0.1-1.8-0.6-2.5-1.3c-0.5-0.6-0.9-1.2-1.1-2c-0.2-0.7-0.2-1.4,0-2.1c0.2-1,0.8-1.8,1.6-2.4
	c0.3-0.2,0.6-0.4,0.9-0.5c7.4-3.5,14.8-6.9,22.2-10.3C83.8,10.7,83.9,10.7,84,10.7z"/>
<path class="st1" d="M25.9,47.3c0-3.2,0-6.4,0-9.5c0.5-0.2,1-0.5,1.6-0.7c5.5-2.6,11-5.1,16.5-7.7c0.5-0.2,0.9-0.4,1.4-0.6
	c0.5-0.2,1-0.2,1.5-0.2c0.7,0,1.3,0.2,1.9,0.6c0.6,0.3,1,0.8,1.4,1.3c0.5,0.7,0.7,1.4,0.8,2.3c0,0.6-0.1,1.2-0.3,1.8
	c-0.3,0.7-0.7,1.3-1.3,1.8c-0.4,0.3-0.8,0.6-1.3,0.8c-5.4,2.5-10.8,5.1-16.2,7.6c-1.9,0.9-3.8,1.8-5.8,2.7
	C26,47.2,26,47.2,25.9,47.3z"/>
<path class="st1" d="M27.5,80.4c0.2-6.3,0.3-12.6,0-19c0.4,0,0.7,0.1,1.1,0.1c0.8,0,1.7,0,2.5,0c1.3,0,2.7-0.1,4-0.1
	c1.4,0,2.8,0.2,4.1,0.9c1.7,0.8,2.9,2.2,3.6,3.9c0.5,1.1,0.7,2.3,0.8,3.5c0.1,1.8-0.1,3.6-0.7,5.2c-1,2.5-2.7,4.2-5.2,5.1
	c-0.9,0.3-1.7,0.4-2.6,0.4c-1.4,0-2.8-0.1-4.2-0.1c-0.9,0-1.9,0.1-2.8,0.1C27.7,80.4,27.6,80.4,27.5,80.4z M31.2,78.8
	c0.1,0,0.1,0,0.2,0c0.6,0,1.1,0.1,1.7,0.1c0.9,0.1,1.8,0,2.6-0.3c1.6-0.6,2.7-1.8,3.4-3.4c0.6-1.5,0.9-3,0.9-4.6
	c0-1.4-0.2-2.7-0.7-3.9c-0.8-1.9-2.1-3.1-4.1-3.6c-1.3-0.3-2.5-0.2-3.8-0.1c-0.1,0-0.2,0.1-0.2,0.2c0,0.9-0.1,1.8-0.1,2.7
	c0,4.1-0.1,8.3,0.1,12.4C31.1,78.5,31.2,78.6,31.2,78.8z"/>
<path class="st1" d="M67.6,80.4c0.3-6.3,0.3-12.6,0-18.9c1.7,0,3.4,0.1,5,0.1c1.7,0,3.3-0.1,5-0.1c-0.2,0.6-0.2,1.3,0,1.9
	c-2.1-0.1-4.3-0.1-6.4-0.2c0,2.2,0,4.4,0,6.6c2,0,3.9,0,6-0.2c-0.2,0.6-0.2,1.3,0,1.9c-2-0.1-4-0.1-5.9-0.2c0,2.5,0,5,0,7.6
	c2.2-0.1,4.4-0.1,6.6-0.2c-0.2,0.6-0.1,1.2,0,1.9C74.4,80.2,71,80.2,67.6,80.4z"/>
<path class="st1" d="M56.5,61.4c0,0.4-0.1,0.7-0.1,1c0,0.3,0.1,0.6,0.1,1c-2.2-0.1-4.5-0.3-6.7-0.2c0,0.1,0,0.2,0,0.3c0,2,0,4,0,6
	c0,0.2,0,0.3,0.3,0.3c1.3,0,2.7,0,4,0c0.6,0,1.3-0.1,1.9-0.1c0,0,0.1,0,0.1,0c0,0.3-0.1,0.6-0.1,0.9c0,0.3,0.1,0.6,0.1,0.9
	c-2.1,0-4.2-0.1-6.3-0.1c0,3.1-0.1,6.2,0.1,9.2c-1.2-0.2-2.5-0.2-3.8,0c0.4-6.3,0.3-12.6,0-19C49.5,61.6,53,61.6,56.5,61.4z"/>
<path class="st1" d="M84.4,78.6c2.3,0,4.6,0,6.9-0.2c-0.1,0.7-0.2,1.3,0,2c-3.5-0.2-7-0.3-10.6,0c0.3-6.4,0.3-12.7,0-19
	c1.3,0.2,2.6,0.2,3.9,0C84.3,67.1,84.2,72.9,84.4,78.6z"/>
</svg>
