<?xml version="1.0" encoding="UTF-8"?><svg id="Layer_1" xmlns="http://www.w3.org/2000/svg" width="294.412" height="291.569" viewBox="0 0 294.412 291.569"><defs><style>.cls-1{fill:#02283f;}.cls-2{fill:#0185c9;}.cls-3{fill:#01b4e1;}.cls-4{fill:#01263e;}.cls-5{fill:#113248;}</style></defs><path class="cls-2" d="M147.895,175.29c-.231-.299,3-1.996,3.358-2.227,29.706-19.172,40.062-57.03,22.518-88.355-11.664-20.826-35.874-35.188-60.06-33.393-.29.022-.797.155-.591-.344.134-.325,4.332-4.404,4.962-4.975,33.711-30.525,86.635-24.563,112.834,12.369,24.46,34.48,16.14,82.104-18.359,106.202-18.702,13.064-42.65,17.179-64.663,10.724Z"/><path class="cls-4" d="M154.85,72.451c-15.119-3.91-31.094,6.013-33.466,21.558-4.996,32.748,42.276,44.53,52.34,11.103.107-.355-.155-.44.5-.366,5.084,24.287-5.721,49.848-26.847,62.701-1.371.834-7.831,4.428-8.986,4.317-.876-.084-4.856-2.233-5.902-2.8-39.337-21.308-51.871-73.764-25.482-110.218,16.926-2.75,35.145,2.256,47.844,13.705Z"/><path class="cls-3" d="M233.84,50.842c-11.224-13.9-26.815-24.243-44.212-28.692-29.395-7.519-60.863,1.832-81.358,23.969-1.087,1.174-4.5,5.808-5.354,6.321-1.45.872-7.31,2.04-9.552,2.869-20.038,7.409-35.702,24.743-40.984,45.461l-2.107,11.676c-.063-2.451-.581-4.89-.745-7.329-2.318-34.487,13.93-67.976,42.148-87.514C137.128-13.869,199.285-1.948,229.776,43.854c1.485,2.23,2.943,4.554,4.064,6.988Z"/><path class="cls-2" d="M128.765,174.552c.381.434-.062.417-.369.488-24.958,5.775-51.712-7.208-63.847-29.303-17.758-32.331-2.135-72.415,32.3-84.461.349.147.013.47-.077.668-1.069,2.367-2.5,4.658-3.57,7.111-16.672,38.205-2.652,81.579,32.108,103.606.556.352,3.325,1.741,3.455,1.889Z"/><path class="cls-1" d="M226.141,177.531c-4.766,3.25-10.3,5.849-15.657,8.063-27.846,11.508-61.447,15.247-90.764,7.316-11.274-3.049-22.374-8.049-31.197-15.754l10.331,3.582c13.049,3.546,26.967,3.003,39.709-1.464,18.52,7.017,40.358,7.018,59.846,4.429,9.419-1.251,18.627-3.575,27.732-6.172Z"/><path class="cls-1" d="M264.893,267.45c-.237.372-8.163.407-8.777.02-.242-.153-.292-.434-.353-.689l-.072-36.727c.027-.802.388-1.021,1.118-1.118,1.692-.223,5.949-.152,7.723.001.401.035.997.035,1.294.322l9.131,14.843c.473.007.647-.541.872-.867,3.126-4.532,5.574-9.577,8.797-14.056.215-.204.476-.209.749-.244,1.526-.2,6.438-.193,7.973.001.347.044.644.059.882.36l.184,37.741c-.084.255-.288.374-.515.479-.7.326-7.874.32-8.466-.048-.129-.08-.418-.542-.418-.639v-21.984l-9.316,13.908c-.334.321-1.052.438-1.39.09l-8.711-13.335-.704-.414v22.356Z"/><path class="cls-1" d="M139.821,228.948c.184.032.49.278.627.439l16.389,21.421v-21.239c0-.044.577-.621.621-.621h8.197c.026,0,.373.346.373.373v37.757c0,.108-.546.448-.733.509-.785.254-5.111.233-6.103.117-.482-.056-.885-.142-1.241-.498l-17.011-22.112v21.984c0,.305-1.027.587-1.361.626-2.313.27-5.51-.023-7.83-.253v-38.13c0-.026.346-.373.373-.373,2.107,0,5.833-.323,7.701,0Z"/><path class="cls-1" d="M18.426,228.277c16.687-1.39,27.482,17.664,17.932,31.353.247.926,3.212,3.367,3.228,3.964s-3.647,4.409-4.148,4.559c-1.452.434-3.245-2.666-4.415-3.391-10.284,7.157-24.943,2.581-29.558-8.991-5.035-12.626,3.474-26.371,16.962-27.494ZM29.899,253.539c4.34-8.67-3.049-18.447-12.631-16.235-4.288.99-7.993,5.033-8.45,9.435-.932,8.961,7.599,15.101,15.867,11.766.429-.581-3.595-3.258-3.49-4.331.034-.352,3.802-4.222,4.166-4.325.443-.125.598-.012.953.2.418.249,3.374,3.651,3.585,3.49Z"/><path class="cls-1" d="M225.148,237.394v6.459h17.264c.043,0,.438.383.493.501.543,1.161.031,6.402-.12,7.945h-17.637v6.583c0,.026.346.373.373.373h19.997v8.197l-29.336-.1c-.26-.295-.207-.65-.239-1.003-1.035-11.446.817-24.438,0-36.048-.147-.373.349-1.351.636-1.351h28.318c.026,0,.373.346.373.373v7.701c0,.026-.346.373-.373.373h-19.748Z"/><path class="cls-1" d="M81.074,253.912c-1.1,11.438-11.814,16.146-22.158,13.712-16.569-3.899-10.44-25.512-11.618-37.801.071-.509.368-.774.869-.869.913-.174,6.772-.173,7.686,0,.607.115.882.487.888,1.099.487,7.18-.692,15.298-.009,22.366.539,5.578,5.297,8.48,10.564,6.593,2.521-.903,4.587-3.942,4.587-6.591v-23.102c0-.026.346-.373.373-.373h8.446c.026,0,.373.346.373.373v24.592Z"/><path class="cls-1" d="M116.161,267.387c-1.024-.985-2.305-6.473-3.265-7.98-5.006-.362-10.19-.041-15.264-.165-.439.105-2.639,7.563-3.536,8.19-.286.199-.636.232-.971.271-1.045.122-6.849.122-7.52-.188-.22-.101-.454-.236-.532-.481l16.285-38.047c1.379.142,7.443-.428,8.16.206l15.904,37.014c.388.912-.157,1.342-1.019,1.475-1.474.227-5.381.162-6.949.027-.402-.035-.995-.035-1.294-.322ZM100.946,250.807h8.446l-4.101-9.938-4.344,9.938Z"/><path class="cls-4" d="M195.339,237.642v29.436c0,.108-.546.448-.733.509-.826.267-6.02.243-7.097.117-.335-.039-1.361-.321-1.361-.626v-29.436h-11.054c-.026,0-.373-.346-.373-.373v-8.073c.244.081.539-.248.621-.248h31.05c.026,0,.373.346.373.373v7.949c0,.026-.346.373-.373.373h-11.054Z"/><path class="cls-5" d="M6.428,278.629c2.727.384,3.931,3.635,1.367,5.091,1.717.802,2.568,3.209,1.249,4.729-.229.264-1.884,1.11-2.12,1.11H1.088v-10.93c1.668.167,3.728-.227,5.341,0ZM6.428,279.871c-1.182-.207-2.852.151-4.099,0v3.478h4.347c1.172,0,1.881-3.104-.248-3.478ZM2.33,288.316h4.595c1.007,0,1.767-1.825,1.134-2.874-.102-.169-1.022-.852-1.134-.852H2.33v3.726Z"/><path class="cls-5" d="M69.399,289.313c.548.886,1.724,1.451,2.741,1.13.402-.127,1.464-1.32,1.715-.497.412,1.352-2.124,1.706-3.094,1.607-1.734-.178-1.999-1.485-2.859-1.865-1.679-.741-2.817-.075-4.46-1.999-3.916-4.586,1.497-11.325,7.119-8.361,4.335,2.286,3.632,8.826-1.162,9.984ZM67.598,279.682c-6.882.362-4.396,11.403,2.147,8.359,4.247-1.976,2.503-8.604-2.147-8.359Z"/><path class="cls-5" d="M280.294,287.323v-8.694c.596-.04,1.186-.085,1.242.621-.264,2.986.352,6.543.012,9.452-.098.836-.504,1.107-1.338.821-.795-.272-5.048-7.501-6.375-8.41v8.446h-1.242v-10.93l1.362.253c2.098,2.81,4.01,5.846,6.338,8.441Z"/><path class="cls-5" d="M240.797,287.074v-8.073c0-.326.917-.454,1.242-.373v10.93l-1.384-.231-6.317-8.463v8.694c-.596.04-1.186.085-1.242-.621.265-2.984-.353-6.545-.012-9.452.178-1.519,1.158-.835,1.877-.115,2.066,2.069,3.579,5.668,5.835,7.703Z"/><path class="cls-5" d="M93.991,289.558v-10.557c0-.026.346-.373.373-.373h4.72c.098,0,1.631.516,1.864.62,3.664,1.638,4.123,7.022.826,9.274-.259.177-2.043,1.036-2.193,1.036h-5.589ZM95.233,288.316h4.347c.153,0,1.076-.532,1.303-.685,2.136-1.433,2.442-4.628.66-6.494-.314-.329-1.862-1.267-2.211-1.267h-4.099v8.446Z"/><path class="cls-5" d="M246.014,289.558v-10.93h5.092c.125,0,1.793.574,2.038.695,2.971,1.476,3.751,5.867,1.563,8.37-.545.624-2.591,1.865-3.352,1.865h-5.341ZM247.256,288.316h4.347c.091,0,1.426-.75,1.601-.883,1.675-1.281,1.96-3.982.761-5.701-.392-.563-1.966-1.861-2.61-1.861h-4.099v8.446Z"/><path class="cls-5" d="M148.018,278.629c4.139.553,4.769,5.61,1.122,7.327.323.514,2.629,3.224,2.23,3.601-1.855.636-2.428-2.844-3.475-3.354-.8-.389-2.539.027-3.479-.123v3.478h-1.242v-10.557c0-.026.346-.373.373-.373,1.346,0,3.216-.168,4.471,0ZM144.417,285.087c2.357.19,6.569.147,5.909-3.293-.131-.684-1.163-1.924-1.81-1.924h-4.099v5.216Z"/><path class="cls-5" d="M133.675,278.694c5.944-.847,9.127,6.379,4.364,9.827-4.102,2.97-9.811-.518-8.964-5.488.353-2.068,2.539-4.046,4.6-4.34ZM134.417,279.684c-5.712.35-5.315,9.081.428,8.892,5.684-.188,5.485-9.254-.428-8.892Z"/><path class="cls-5" d="M185.652,278.629v1.242h-5.962v3.478h5.092c.326,0,.454.917.373,1.242h-5.465v3.726h6.21v1.242h-7.452v-10.93h7.204Z"/><path class="cls-5" d="M209.995,278.629v4.968h6.459v-4.968h1.242v10.93h-1.242v-4.72h-6.459v4.72h-1.242v-10.557c0-.326.917-.454,1.242-.373Z"/><path class="cls-5" d="M199.558,286.328c.087-.061.834-1.66.752-1.986,2.11.354-.107,2.062.038,2.821.124.652,2.3,1.457,1.074,2.394-.516.109-1.348-1.399-1.769-1.472-.188-.033-1.691,1.193-2.318,1.356-4.393,1.135-6.222-4.179-2.007-5.965-3.833-4.278,3.561-6.811,4.193-2.92.332,2.043-2.554,2.854-2.432,3.398.038.17,2.216,2.55,2.469,2.374ZM196.089,283.099c2.324-.343,3.549-3.802.385-3.457-1.872.204-1.047,2.365-.385,3.457ZM195.755,284.378c-.435.039-1.297.853-1.468,1.27-1.268,3.086,3.005,3.891,4.525,1.551-.574-.411-2.527-2.868-3.056-2.821Z"/><path class="cls-5" d="M34.622,278.629v6.21l5.576-5.975,1.627-.234c.108.468-.265.588-.495.869-.461.562-3.68,3.701-3.682,3.971l4.425,6.087c-.558-.005-1.129.134-1.631-.229-.627-.454-3.262-4.736-3.708-4.733-1.844,1.527-2.477,2.44-2.11,4.965h-1.243v-10.931h1.242Z"/><path class="cls-5" d="M230.86,289.557c-2,.681-1.737-2.379-2.647-2.691-.507-.174-5.645-.119-5.824.114-.736.957-.341,3.121-2.208,2.578.379-1.349,4.314-10.719,4.882-10.903.294-.096.562-.041.832.094.723.361,4.28,9.392,4.965,10.809ZM223.161,285.584h4.72c-.826-1.482-1.332-3.241-2.109-4.732-.135-.259-.023-.627-.496-.486-.27.08-1.822,4.565-2.114,5.218Z"/><path class="cls-5" d="M164.039,289.557c-1.834.553-1.565-1.649-2.206-2.585-.166-.242-5.358-.267-5.826-.107-1.013.347-.637,3.365-2.647,2.691.638-1.422,4.211-10.436,4.964-10.81.476-.236.967-.204,1.222.278l4.493,10.532ZM161.06,285.584l-2.36-5.467-2.36,5.467h4.72Z"/><path class="cls-5" d="M20.215,278.629h1.242v7.328c0,.239-.594,1.652-.785,1.947-1.385,2.14-5.449,2.252-7.164.538-.399-.399-1.241-2.251-1.241-2.733v-6.707c0-.493,1.49-.493,1.49,0v7.452c0,.276,1.073,1.399,1.4,1.581,1.212.675,3.237.595,4.169-.484.306-.354.89-1.952.89-2.339v-6.583Z"/><path class="cls-5" d="M84.055,278.629h1.242v7.576c0,.11-.644,1.482-.785,1.699-1.76,2.692-7.034,2.271-8.042-1.069-.061-.201-.364-1.767-.364-1.872v-5.962c0-.493,1.49-.493,1.49,0v7.452c0,1.026,2.289,2.076,3.287,2.046,1.521-.045,3.171-1.177,3.171-2.791v-7.08Z"/><path class="cls-5" d="M293.956,288.192c-.118.381-2.365,1.273-2.878,1.344-8.516,1.187-8.965-11.083-.968-10.925.775.015,3.849.813,3.842,1.632,0,.108-.535.603-.82.58-.449-.037-1.251-.775-1.84-.897-6.958-1.432-7.506,8.421-1.412,8.614.475.015,2.747-.49,2.843-.889.297-1.234-.873-3.901,1.233-3.558-.202,1.06.275,3.21,0,4.099Z"/><path class="cls-5" d="M174.722,288.192c-.136.469-1.898,1.219-2.419,1.307-9.366,1.584-9.256-12.06-.459-10.848.678.093,3.123.943,2.876,1.837-.254.919-1.97-.437-2.666-.558-8.226-1.426-6.565,10.971.608,8.189,2.088-.81.588-3.571,1.067-4.027.036-.034.993-.048.993.001,0,.919.188,3.449,0,4.099Z"/><path class="cls-5" d="M118.079,279.385c.083.117-.194,1.195-.245,1.231-.157.112-1.475-.608-1.919-.686-1.18-.207-3.435-.315-3.539,1.325-.165,2.602,6.258,1.766,6.119,5.409-.093,2.446-2.742,3.114-4.758,2.895-1.063-.116-4.192-1.205-2.725-2.485,1.459,1.519,7.005,2.16,5.975-1.005-.662-2.036-6.31-1.121-5.863-5.085.257-2.277,2.957-2.592,4.79-2.294.255.041,2.098.603,2.164.696Z"/><polygon class="cls-5" points="128.27 278.629 128.27 279.871 124.793 279.871 124.793 289.558 123.551 289.558 123.551 279.871 120.073 279.871 120.073 278.629 128.27 278.629"/><path class="cls-5" d="M260.173,288.316h4.471v1.242h-5.589c-.026,0-.373-.346-.373-.373v-10.185c0-.493,1.49-.493,1.49,0v9.315Z"/><polygon class="cls-5" points="50.768 278.629 50.768 288.316 55.488 288.316 55.488 289.558 49.526 289.558 49.526 278.629 50.768 278.629"/><path class="cls-5" d="M26.176,288.316h4.347c.468,0,.468,1.242,0,1.242h-5.589v-10.93c.325-.081,1.242.046,1.242.373v9.315Z"/><path class="cls-5" d="M59.214,278.629v10.93h-1.242v-10.557c0-.326.917-.454,1.242-.373Z"/><path class="cls-5" d="M268.619,289.558h-1.242v-10.557c0-.468,1.242-.468,1.242,0v10.557Z"/><path class="cls-1" d="M90.016,278.877v10.681c0,.05-.994.05-.994,0v-10.681c0-.05.816.033.994,0Z"/><path class="cls-1" d="M226.514,177.28c.161.083.161.166,0,.248v-.248Z"/></svg>