<?xml version="1.0" encoding="UTF-8"?><svg id="Layer_1" xmlns="http://www.w3.org/2000/svg" width="1032.092" height="204.099" viewBox="0 0 1032.092 204.099"><defs><style>.cls-1{fill:#fff;}</style></defs><path class="cls-1" d="M915.066,0c-74.976,0-116.945,27.637-116.945,32.344v143.226c0,1.144.928,2.072,2.072,2.072h229.827c1.144,0,2.072-.927,2.072-2.072V32.344c0-4.707-42.05-32.344-117.027-32.344h0ZM867.807,157.732h-32.737V38.535h32.737v119.197ZM968.7,157.732l-5.372-5.708c-4.142,2.127-8.535,3.751-13.179,4.868-4.646,1.117-9.543,1.679-14.689,1.679-9.066,0-17.292-1.705-24.679-5.121-7.387-3.413-13.712-7.945-18.971-13.599-5.262-5.65-9.346-12.113-12.255-19.39-2.912-7.274-4.365-14.774-4.365-22.497,0-7.833,1.511-15.387,4.532-22.664,3.022-7.273,7.245-13.708,12.675-19.306,5.427-5.595,11.862-10.044,19.306-13.347,7.442-3.3,15.585-4.952,24.427-4.952,9.066,0,17.292,1.763,24.679,5.288,7.387,3.526,13.709,8.143,18.971,13.85,5.259,5.708,9.317,12.2,12.171,19.474,2.854,7.277,4.281,14.719,4.281,22.329,0,7.387-1.318,14.466-3.946,21.237-2.631,6.772-6.353,12.843-11.163,18.215l18.131,19.642h-30.555v.002Z"/><path class="cls-1" d="M956.194,76.309c-2.295-2.909-5.149-5.23-8.563-6.967-3.415-1.734-7.415-2.603-12.003-2.603-4.701,0-8.759.923-12.171,2.771-3.416,1.847-6.241,4.255-8.478,7.219-2.24,2.967-3.891,6.325-4.953,10.073-1.065,3.751-1.595,7.584-1.595,11.5,0,4.029.559,7.919,1.679,11.668,1.117,3.751,2.797,7.081,5.037,9.989,2.237,2.911,5.062,5.233,8.478,6.967,3.413,1.737,7.471,2.602,12.171,2.602,2.461,0,4.533-.222,6.212-.671l-19.642-21.489h30.555l6.548,7.219c1.23-2.573,2.124-5.259,2.686-8.058.559-2.796.839-5.65.839-8.562,0-4.029-.561-7.916-1.679-11.668-1.12-3.748-2.827-7.077-5.12-9.989h0Z"/><path class="cls-1" d="M7.624,67.961c5.083-9.205,12.17-16.377,21.263-21.518,9.091-5.139,19.4-7.709,30.921-7.709,14.118,0,26.203,3.727,36.258,11.182,10.052,7.455,16.774,17.621,20.162,30.498h-31.853c-2.372-4.97-5.734-8.752-10.081-11.353-4.35-2.597-9.292-3.896-14.825-3.896-8.924,0-16.154,3.108-21.687,9.318-5.536,6.214-8.302,14.516-8.302,24.906s2.767,18.695,8.302,24.906c5.533,6.214,12.763,9.318,21.687,9.318,5.533,0,10.476-1.297,14.825-3.896,4.347-2.597,7.709-6.38,10.081-11.352h31.853c-3.389,12.877-10.11,23.016-20.162,30.412-10.055,7.399-22.14,11.098-36.258,11.098-11.521,0-21.83-2.567-30.921-7.709-9.094-5.138-16.18-12.283-21.263-21.433S0,111.139,0,99.39s2.541-22.222,7.624-31.429Z"/><path class="cls-1" d="M129.528,86.005c3.669-7.341,8.667-12.987,14.995-16.943,6.324-3.952,13.385-5.93,21.179-5.93,6.664,0,12.509,1.355,17.536,4.066,5.025,2.711,8.895,6.269,11.606,10.674v-13.385h28.973v94.542h-28.973v-13.385c-2.825,4.405-6.751,7.963-11.775,10.674-5.027,2.711-10.873,4.066-17.536,4.066-7.683,0-14.685-2.004-21.009-6.015-6.327-4.008-11.325-9.713-14.995-17.112-3.672-7.397-5.506-15.953-5.506-25.669s1.834-18.24,5.506-25.584h-.001ZM188.829,94.646c-4.011-4.177-8.895-6.269-14.656-6.269s-10.648,2.062-14.656,6.185c-4.011,4.124-6.015,9.8-6.015,17.027s2.004,12.961,6.015,17.197c4.008,4.235,8.895,6.354,14.656,6.354s10.645-2.089,14.656-6.269c4.008-4.178,6.015-9.883,6.015-17.112s-2.007-12.933-6.015-17.113h0Z"/><path class="cls-1" d="M281.251,67.199c4.969-2.711,10.785-4.066,17.451-4.066,7.794,0,14.852,1.978,21.179,5.93,6.324,3.956,11.323,9.603,14.995,16.943,3.669,7.344,5.507,15.871,5.507,25.584s-1.837,18.271-5.507,25.669c-3.672,7.399-8.67,13.104-14.995,17.112-6.327,4.011-13.385,6.015-21.179,6.015-6.552,0-12.342-1.355-17.367-4.066-5.027-2.711-8.953-6.211-11.775-10.505v58.284h-28.973V64.488h28.973v13.385c2.822-4.405,6.719-7.963,11.691-10.674h0ZM304.886,94.562c-4.011-4.122-8.953-6.185-14.825-6.185-5.76,0-10.647,2.092-14.656,6.269-4.011,4.181-6.015,9.886-6.015,17.113s2.004,12.935,6.015,17.112c4.008,4.18,8.895,6.269,14.656,6.269s10.674-2.118,14.74-6.354c4.066-4.236,6.1-9.968,6.1-17.197s-2.007-12.903-6.015-17.027h0Z"/><path class="cls-1" d="M351.138,86.005c3.669-7.341,8.667-12.987,14.995-16.943,6.324-3.952,13.385-5.93,21.179-5.93,6.664,0,12.509,1.355,17.536,4.066,5.025,2.711,8.895,6.269,11.606,10.674v-13.385h28.973v94.542h-28.973v-13.385c-2.825,4.405-6.751,7.963-11.775,10.674-5.027,2.711-10.873,4.066-17.536,4.066-7.683,0-14.685-2.004-21.009-6.015-6.327-4.008-11.325-9.713-14.995-17.112-3.672-7.397-5.506-15.953-5.506-25.669s1.834-18.24,5.506-25.584h-.001ZM410.439,94.646c-4.011-4.177-8.895-6.269-14.656-6.269s-10.648,2.062-14.656,6.185c-4.011,4.124-6.015,9.8-6.015,17.027s2.004,12.961,6.015,17.197c4.008,4.235,8.895,6.354,14.656,6.354s10.645-2.089,14.656-6.269c4.008-4.178,6.015-9.883,6.015-17.112s-2.007-12.933-6.015-17.113h0Z"/><path class="cls-1" d="M462.452,86.005c4.008-7.341,9.599-12.987,16.774-16.943,7.172-3.952,15.389-5.93,24.652-5.93,11.86,0,21.772,3.108,29.735,9.318,7.963,6.214,13.186,14.969,15.672,26.262h-30.836c-2.6-7.227-7.625-10.843-15.079-10.843-5.311,0-9.546,2.062-12.707,6.184-3.164,4.125-4.744,10.025-4.744,17.706s1.581,13.583,4.744,17.705c3.161,4.124,7.397,6.184,12.707,6.184,7.455,0,12.48-3.613,15.079-10.843h30.836c-2.486,11.071-7.738,19.768-15.757,26.092-8.021,6.327-17.904,9.488-29.65,9.488-9.263,0-17.48-1.975-24.652-5.93-7.174-3.953-12.766-9.6-16.774-16.943-4.011-7.341-6.015-15.927-6.015-25.753s2.004-18.41,6.015-25.754h0Z"/><path class="cls-1" d="M562.584,50.171c-3.219-2.992-4.829-6.693-4.829-11.098,0-4.517,1.61-8.273,4.829-11.268,3.219-2.991,7.37-4.49,12.453-4.49,4.969,0,9.064,1.499,12.284,4.49,3.219,2.994,4.829,6.751,4.829,11.268,0,4.404-1.61,8.105-4.829,11.098-3.219,2.994-7.315,4.489-12.284,4.489-5.083,0-9.234-1.495-12.453-4.489ZM589.439,64.488v94.542h-28.973v-94.542h28.973Z"/><path class="cls-1" d="M658.906,134.462v24.567h-14.741c-10.504,0-18.695-2.568-24.567-7.709-5.875-5.139-8.81-13.525-8.81-25.16v-37.613h-11.521v-24.06h11.521v-23.043h28.972v23.043h18.977v24.06h-18.977v37.952c0,2.824.678,4.857,2.033,6.1,1.355,1.244,3.614,1.863,6.777,1.863h10.336Z"/><path class="cls-1" d="M767.34,64.488l-59.301,139.441h-31.175l21.688-48.118-38.461-91.323h32.361l21.856,59.131,21.687-59.131s31.345,0,31.345,0Z"/></svg>