<?xml version="1.0" encoding="UTF-8"?><svg id="Layer_1" xmlns="http://www.w3.org/2000/svg" width="708.99" height="177.642" viewBox="0 0 708.99 177.642"><defs><style>.cls-1{fill:#fff;}</style></defs><path class="cls-1" d="M591.964,0c-74.976,0-116.945,27.637-116.945,32.344v143.226c0,1.144.928,2.072,2.072,2.072h229.827c1.144,0,2.072-.927,2.072-2.072V32.344c0-4.707-42.05-32.344-117.027-32.344h0ZM544.705,157.732h-32.737V38.535h32.737v119.197ZM645.599,157.732l-5.372-5.708c-4.142,2.127-8.535,3.751-13.179,4.868-4.646,1.117-9.543,1.679-14.689,1.679-9.066,0-17.292-1.705-24.679-5.121-7.387-3.413-13.712-7.945-18.971-13.599-5.262-5.65-9.346-12.113-12.255-19.39-2.912-7.274-4.365-14.774-4.365-22.497,0-7.833,1.511-15.387,4.532-22.664,3.022-7.273,7.245-13.708,12.675-19.306,5.427-5.595,11.862-10.044,19.306-13.347,7.442-3.3,15.585-4.952,24.427-4.952,9.066,0,17.292,1.763,24.679,5.288,7.387,3.526,13.709,8.143,18.971,13.85,5.259,5.708,9.317,12.2,12.171,19.474,2.854,7.277,4.281,14.719,4.281,22.329,0,7.387-1.318,14.466-3.946,21.237-2.631,6.772-6.353,12.843-11.163,18.215l18.131,19.642h-30.555v.002Z"/><path class="cls-1" d="M633.092,76.309c-2.295-2.909-5.149-5.23-8.563-6.967-3.415-1.734-7.415-2.603-12.003-2.603-4.701,0-8.759.923-12.171,2.771-3.416,1.847-6.241,4.255-8.478,7.219-2.24,2.967-3.891,6.325-4.953,10.073-1.065,3.751-1.595,7.584-1.595,11.5,0,4.029.559,7.919,1.679,11.668,1.117,3.751,2.797,7.081,5.037,9.989,2.237,2.911,5.062,5.233,8.478,6.967,3.413,1.737,7.471,2.602,12.171,2.602,2.461,0,4.533-.222,6.212-.671l-19.642-21.489h30.555l6.548,7.219c1.23-2.573,2.124-5.259,2.686-8.058.559-2.796.839-5.65.839-8.562,0-4.029-.561-7.916-1.679-11.668-1.12-3.748-2.827-7.077-5.12-9.989h0Z"/><path class="cls-1" d="M7.624,65.733c5.083-9.205,12.17-16.377,21.263-21.518,9.091-5.139,19.4-7.709,30.921-7.709,14.118,0,26.203,3.727,36.258,11.182,10.052,7.455,16.774,17.621,20.162,30.498h-31.853c-2.372-4.97-5.734-8.752-10.081-11.353-4.35-2.597-9.292-3.896-14.825-3.896-8.924,0-16.154,3.108-21.687,9.318-5.536,6.214-8.302,14.516-8.302,24.906s2.767,18.695,8.302,24.906c5.533,6.214,12.763,9.318,21.687,9.318,5.533,0,10.476-1.297,14.825-3.896,4.347-2.597,7.709-6.38,10.081-11.352h31.853c-3.389,12.877-10.11,23.016-20.162,30.412-10.055,7.399-22.14,11.098-36.258,11.098-11.521,0-21.83-2.567-30.921-7.709-9.094-5.138-16.18-12.283-21.263-21.433S0,108.91,0,97.161s2.541-22.222,7.624-31.429h0Z"/><path class="cls-1" d="M158.755,31.423v125.378h-28.973V31.423h28.973Z"/><path class="cls-1" d="M264.14,116.477h-65.57c.45,5.874,2.343,10.364,5.676,13.47,3.33,3.107,7.426,4.659,12.284,4.659,7.227,0,12.255-3.05,15.079-9.149h30.836c-1.583,6.214-4.434,11.805-8.556,16.773-4.125,4.972-9.292,8.869-15.503,11.691-6.213,2.824-13.16,4.235-20.84,4.235-9.263,0-17.51-1.975-24.737-5.93-7.23-3.953-12.877-9.6-16.943-16.943-4.066-7.341-6.099-15.927-6.099-25.753s2.004-18.41,6.015-25.754c4.008-7.341,9.628-12.987,16.858-16.943,7.227-3.952,15.529-5.93,24.906-5.93,9.149,0,17.282,1.922,24.398,5.761,7.116,3.841,12.678,9.318,16.689,16.435,4.008,7.116,6.015,15.418,6.015,24.906,0,2.711-.169,5.535-.508,8.472ZM234.999,100.381c0-4.97-1.694-8.922-5.083-11.86-3.389-2.936-7.624-4.405-12.707-4.405-4.858,0-8.953,1.414-12.284,4.236-3.333,2.824-5.395,6.835-6.184,12.029h36.258Z"/><path class="cls-1" d="M275.407,83.777c3.669-7.341,8.667-12.987,14.995-16.943,6.324-3.952,13.385-5.93,21.179-5.93,6.664,0,12.509,1.355,17.536,4.066,5.025,2.711,8.895,6.269,11.606,10.674v-13.385h28.973v94.542h-28.973v-13.385c-2.825,4.405-6.751,7.963-11.775,10.674-5.027,2.711-10.873,4.066-17.536,4.066-7.683,0-14.685-2.004-21.009-6.015-6.327-4.008-11.325-9.713-14.995-17.112-3.672-7.397-5.506-15.953-5.506-25.669s1.834-18.24,5.506-25.584h0ZM334.708,92.417c-4.011-4.177-8.895-6.269-14.656-6.269s-10.648,2.062-14.656,6.185c-4.011,4.124-6.015,9.8-6.015,17.027s2.004,12.961,6.015,17.197c4.008,4.235,8.895,6.354,14.656,6.354s10.645-2.089,14.656-6.269c4.008-4.178,6.015-9.883,6.015-17.112s-2.007-12.933-6.015-17.113Z"/><path class="cls-1" d="M428.146,65.733c5.083-2.992,10.73-4.49,16.943-4.49v30.667h-7.963c-7.23,0-12.652,1.554-16.265,4.659-3.616,3.108-5.422,8.557-5.422,16.35v43.883h-28.973V62.259h28.973v15.757c3.389-5.194,7.624-9.289,12.707-12.283h0Z"/></svg>