<?xml version="1.0" encoding="UTF-8"?>
<svg id="Layer_1" data-name="Layer 1" xmlns="http://www.w3.org/2000/svg" xmlns:xlink="http://www.w3.org/1999/xlink" viewBox="0 0 40 40">
  <defs>
    <style>
      .cls-1 {
        fill: #fff;
      }

      .cls-2 {
        fill: none;
        stroke: #e4e4e7;
        stroke-width: .833px;
      }

      .cls-3 {
        fill: url(#linear-gradient);
      }
    </style>
    <linearGradient id="linear-gradient" x1="20" y1="3.572" x2="20" y2="33.895" gradientUnits="userSpaceOnUse">
      <stop offset="0" stop-color="#4cbc95"/>
      <stop offset=".586" stop-color="#47b493"/>
      <stop offset=".66" stop-color="#39aa8e"/>
      <stop offset=".881" stop-color="#178f84"/>
      <stop offset="1" stop-color="#0a8680"/>
    </linearGradient>
  </defs>
  <rect class="cls-3" x=".417" y=".417" width="39.167" height="39.167" rx="6.25" ry="6.25"/>
  <rect class="cls-2" x=".417" y=".417" width="39.167" height="39.167" rx="6.25" ry="6.25"/>
  <path class="cls-1" d="M12.719,25.769l-1.438-5.277c-.037-.161-.023-.337.043-.527.066-.19.191-.315.376-.377l1.3-.45v-4.331c0-.46.154-.844.462-1.153.308-.308.693-.463,1.153-.463h3.385v-3h4v3h3.385c.46,0,.844.154,1.153.463.308.308.462.693.462,1.153v4.331l1.3.45c.222.082.373.214.452.395.079.181.094.351.044.509l-1.515,5.277c-.603-.192-1.146-.475-1.631-.847-.485-.372-1.035-.91-1.65-1.614-.577.691-1.178,1.28-1.804,1.768-.626.488-1.358.732-2.196.732s-1.57-.244-2.196-.732c-.626-.488-1.227-1.077-1.804-1.768-.602.704-1.149,1.242-1.64,1.614-.491.372-1.038.655-1.64.847ZM10.5,29.808v-1h1.5c.7,0,1.392-.108,2.075-.325.683-.217,1.325-.542,1.925-.975.6.433,1.242.75,1.925.95.683.2,1.375.3,2.075.3s1.392-.1,2.075-.3c.683-.2,1.325-.517,1.925-.95.6.433,1.242.758,1.925.975.683.217,1.375.325,2.075.325h1.5v1h-1.5c-.7,0-1.383-.083-2.05-.25-.667-.167-1.317-.417-1.95-.75-.633.333-1.288.583-1.962.75-.675.167-1.354.25-2.038.25s-1.362-.083-2.038-.25c-.675-.167-1.329-.417-1.962-.75-.633.333-1.283.583-1.95.75-.667.167-1.35.25-2.05.25h-1.5ZM14,18.796l6-1.95,6,1.95v-3.988c0-.179-.058-.327-.173-.442-.115-.115-.263-.173-.442-.173h-10.769c-.18,0-.327.058-.442.173-.115.115-.173.263-.173.442v3.988ZM20,24.808c.783,0,1.44-.272,1.968-.815.529-.544,1.206-1.288,2.032-2.235.787.9,1.326,1.51,1.615,1.831.29.32.635.597,1.035.831l1.1-3.962-7.75-2.55-7.762,2.55,1.112,3.95c.4-.233.745-.5,1.035-.8.29-.3.828-.917,1.615-1.85.833.95,1.513,1.696,2.038,2.238.525.542,1.179.812,1.962.812Z"/>
</svg>