<?xml version="1.0" encoding="UTF-8"?>
<svg id="Layer_1" data-name="Layer 1" xmlns="http://www.w3.org/2000/svg" xmlns:xlink="http://www.w3.org/1999/xlink" viewBox="0 0 40 40">
  <defs>
    <style>
      .cls-1 {
        fill: none;
        stroke: #e4e4e7;
        stroke-width: .833px;
      }

      .cls-2 {
        fill: #f2f2f3;
      }

      .cls-3 {
        fill: url(#linear-gradient);
      }
    </style>
    <linearGradient id="linear-gradient" x1="20" y1="9.982" x2="20" y2="28.162" gradientUnits="userSpaceOnUse">
      <stop offset="0" stop-color="#4cbc95"/>
      <stop offset=".586" stop-color="#47b493"/>
      <stop offset=".66" stop-color="#39aa8e"/>
      <stop offset=".881" stop-color="#178f84"/>
      <stop offset="1" stop-color="#0a8680"/>
    </linearGradient>
  </defs>
  <rect class="cls-2" x=".417" y=".417" width="39.167" height="39.167" rx="6.25" ry="6.25"/>
  <rect class="cls-1" x=".417" y=".417" width="39.167" height="39.167" rx="6.25" ry="6.25"/>
  <path class="cls-3" d="M13,23.615v-9.115c0-.653.188-1.177.562-1.574s.883-.701,1.524-.912c.641-.211,1.386-.349,2.236-.415.849-.066,1.742-.099,2.678-.099.972,0,1.881.033,2.728.099.847.066,1.588.205,2.223.415.635.211,1.135.515,1.501.912s.548.921.548,1.574v9.115c0,.804-.28,1.486-.839,2.045-.56.56-1.241.839-2.045.839l1.5,1.5v.5h-.846l-2-2h-5.538l-2,2h-.846v-.5l1.5-1.5c-.804,0-1.486-.28-2.045-.839-.56-.56-.839-1.241-.839-2.045ZM20,12.5c-1.959,0-3.385.13-4.279.389-.894.26-1.433.643-1.617,1.149h11.815c-.173-.514-.707-.899-1.603-1.155-.896-.256-2.334-.384-4.316-.384ZM14,19.5h5.5v-4.462h-5.5v4.462ZM24.115,20.5h-10.115,12-1.885ZM20.5,19.5h5.5v-4.462h-5.5v4.462ZM16.5,24.115c.318,0,.583-.106.796-.319.213-.213.319-.478.319-.796s-.106-.583-.319-.796c-.213-.213-.478-.319-.796-.319s-.583.106-.796.319c-.213.213-.319.478-.319.796s.106.583.319.796c.213.213.478.319.796.319ZM23.5,24.115c.318,0,.583-.106.796-.319.213-.213.319-.478.319-.796s-.106-.583-.319-.796c-.213-.213-.478-.319-.796-.319s-.583.106-.796.319-.319.478-.319.796.106.583.319.796.478.319.796.319ZM15.885,25.5h8.231c.523,0,.968-.183,1.335-.55.367-.367.55-.812.55-1.335v-3.115h-12v3.115c0,.523.183.968.55,1.335.367.367.811.55,1.335.55ZM20,14.039h5.919-11.815,5.896Z"/>
</svg>