<?xml version="1.0" encoding="UTF-8"?>
<svg id="Layer_1" data-name="Layer 1" xmlns="http://www.w3.org/2000/svg" xmlns:xlink="http://www.w3.org/1999/xlink" viewBox="0 0 40 40">
  <defs>
    <style>
      .cls-1 {
        fill: #fff;
      }

      .cls-2 {
        fill: none;
        stroke: #e4e4e7;
        stroke-width: .833px;
      }

      .cls-3 {
        fill: url(#linear-gradient);
      }
    </style>
    <linearGradient id="linear-gradient" x1="20" y1="2.945" x2="20" y2="36.887" gradientUnits="userSpaceOnUse">
      <stop offset="0" stop-color="#4cbc95"/>
      <stop offset=".586" stop-color="#47b493"/>
      <stop offset=".66" stop-color="#39aa8e"/>
      <stop offset=".881" stop-color="#178f84"/>
      <stop offset="1" stop-color="#0a8680"/>
    </linearGradient>
  </defs>
  <rect class="cls-3" x=".417" y=".417" width="39.167" height="39.167" rx="6.25" ry="6.25"/>
  <rect class="cls-2" x=".417" y=".417" width="39.167" height="39.167" rx="6.25" ry="6.25"/>
  <path class="cls-1" d="M13.616,29c-.448,0-.829-.157-1.144-.472-.315-.315-.472-.696-.472-1.143v-12.769c0-.448.157-.829.472-1.144.315-.315.696-.472,1.144-.472h4.7c-.091-.51.031-.971.366-1.383.335-.411.775-.617,1.318-.617.556,0,1.002.206,1.337.617s.451.872.347,1.383h4.7c.448,0,.829.157,1.143.472.315.315.472.696.472,1.144v12.769c0,.448-.157.829-.472,1.143-.315.315-.696.472-1.143.472h-12.769ZM13.616,28h12.769c.154,0,.295-.064.423-.192s.192-.269.192-.423v-12.769c0-.154-.064-.295-.192-.423-.128-.128-.269-.192-.423-.192h-12.769c-.154,0-.295.064-.423.192-.128.128-.192.269-.192.423v12.769c0,.154.064.295.192.423.128.128.269.192.423.192ZM15.5,25.269h6v-1h-6v1ZM15.5,21.5h9v-1h-9v1ZM15.5,17.731h9v-1h-9v1ZM20.538,13.23c.142-.142.212-.321.212-.538s-.071-.396-.212-.537c-.142-.142-.321-.213-.538-.213s-.396.071-.538.213c-.142.142-.212.321-.212.537s.071.396.212.538c.142.142.321.212.538.212s.396-.071.538-.212Z"/>
</svg>