<?xml version="1.0" encoding="UTF-8"?>
<svg id="Layer_1" data-name="Layer 1" xmlns="http://www.w3.org/2000/svg" xmlns:xlink="http://www.w3.org/1999/xlink" viewBox="0 0 40 40">
  <defs>
    <style>
      .cls-1 {
        fill: none;
        stroke: #e4e4e7;
        stroke-width: .833px;
      }

      .cls-2 {
        fill: #f2f2f3;
      }

      .cls-3 {
        fill: url(#linear-gradient);
      }
    </style>
    <linearGradient id="linear-gradient" x1="20" y1="11.149" x2="20" y2="26.317" gradientUnits="userSpaceOnUse">
      <stop offset="0" stop-color="#4cbc95"/>
      <stop offset=".586" stop-color="#47b493"/>
      <stop offset=".66" stop-color="#39aa8e"/>
      <stop offset=".881" stop-color="#178f84"/>
      <stop offset="1" stop-color="#0a8680"/>
    </linearGradient>
  </defs>
  <rect class="cls-2" x=".417" y=".417" width="39.167" height="39.167" rx="6.25" ry="6.25"/>
  <rect class="cls-1" x=".417" y=".417" width="39.167" height="39.167" rx="6.25" ry="6.25"/>
  <path class="cls-3" d="M13.688,27.058c-.728,0-1.345-.254-1.851-.763-.506-.509-.76-1.126-.76-1.853h-1.385v-9.885c0-.46.154-.845.462-1.153.308-.308.693-.462,1.153-.462h13.231v3.615h2.308l3.461,4.654v3.231h-1.615c0,.726-.255,1.344-.764,1.853-.509.508-1.128.763-1.856.763s-1.345-.254-1.851-.763c-.506-.509-.76-1.126-.76-1.853h-7.154c0,.731-.255,1.349-.764,1.856-.509.506-1.128.76-1.856.76ZM13.692,26.058c.45,0,.832-.157,1.145-.47.314-.314.47-.695.47-1.145s-.157-.832-.47-1.145c-.313-.313-.695-.47-1.145-.47s-.832.157-1.145.47c-.313.314-.47.695-.47,1.145s.157.832.47,1.145c.314.313.695.47,1.145.47ZM10.692,23.442h.646c.142-.441.432-.82.869-1.139.437-.318.932-.477,1.485-.477.527,0,1.015.156,1.465.467.45.312.746.694.889,1.148h7.492v-9.5h-12.231c-.154,0-.295.064-.423.192-.128.128-.192.269-.192.423v8.885ZM26.077,26.058c.45,0,.832-.157,1.145-.47s.47-.695.47-1.145-.157-.832-.47-1.145-.695-.47-1.145-.47-.832.157-1.145.47c-.313.314-.47.695-.47,1.145s.157.832.47,1.145c.313.313.695.47,1.145.47ZM24.539,21.442h4.712l-2.942-3.885h-1.769v3.885Z"/>
</svg>