<?xml version="1.0" encoding="UTF-8"?>
<svg id="Layer_1" data-name="Layer 1" xmlns="http://www.w3.org/2000/svg" xmlns:xlink="http://www.w3.org/1999/xlink" viewBox="0 0 40 40">
  <defs>
    <style>
      .cls-1 {
        fill: url(#linear-gradient-2);
      }

      .cls-2 {
        fill: url(#linear-gradient-10);
      }

      .cls-3 {
        fill: url(#linear-gradient-4);
      }

      .cls-4 {
        fill: none;
        stroke: #e4e4e7;
        stroke-width: .833px;
      }

      .cls-5 {
        fill: url(#linear-gradient-3);
      }

      .cls-6 {
        fill: url(#linear-gradient-5);
      }

      .cls-7 {
        fill: url(#linear-gradient-8);
      }

      .cls-8 {
        fill: #f2f2f3;
      }

      .cls-9 {
        fill: url(#linear-gradient-7);
      }

      .cls-10 {
        fill: url(#linear-gradient-9);
      }

      .cls-11 {
        fill: url(#linear-gradient-11);
      }

      .cls-12 {
        fill: url(#linear-gradient-6);
      }

      .cls-13 {
        fill: url(#linear-gradient);
      }
    </style>
    <linearGradient id="linear-gradient" x1="20" y1="11.303" x2="20" y2="25.59" gradientUnits="userSpaceOnUse">
      <stop offset="0" stop-color="#4cbc95"/>
      <stop offset=".586" stop-color="#47b493"/>
      <stop offset=".66" stop-color="#39aa8e"/>
      <stop offset=".881" stop-color="#178f84"/>
      <stop offset="1" stop-color="#0a8680"/>
    </linearGradient>
    <linearGradient id="linear-gradient-2" x1="17.442" x2="17.442" xlink:href="#linear-gradient"/>
    <linearGradient id="linear-gradient-3" x1="22.557" y1="11.303" x2="22.557" y2="25.59" xlink:href="#linear-gradient"/>
    <linearGradient id="linear-gradient-4" x1="15.169" x2="15.169" y2="25.59" xlink:href="#linear-gradient"/>
    <linearGradient id="linear-gradient-5" x1="24.83" y1="11.303" x2="24.83" y2="25.59" xlink:href="#linear-gradient"/>
    <linearGradient id="linear-gradient-6" x1="24.66" y1="11.303" x2="24.66" y2="25.59" xlink:href="#linear-gradient"/>
    <linearGradient id="linear-gradient-7" x1="22" y1="11.303" x2="22" y2="25.59" xlink:href="#linear-gradient"/>
    <linearGradient id="linear-gradient-8" x1="23.33" y1="11.303" x2="23.33" y2="25.59" xlink:href="#linear-gradient"/>
    <linearGradient id="linear-gradient-9" x1="23.33" y1="11.303" x2="23.33" y2="25.59" xlink:href="#linear-gradient"/>
    <linearGradient id="linear-gradient-10" x1="23.33" y1="11.303" x2="23.33" y2="25.59" xlink:href="#linear-gradient"/>
    <linearGradient id="linear-gradient-11" x1="23.33" y1="11.303" x2="23.33" y2="25.59" xlink:href="#linear-gradient"/>
  </defs>
  <rect class="cls-8" x=".417" y=".417" width="39.167" height="39.167" rx="6.25" ry="6.25"/>
  <rect class="cls-4" x=".417" y=".417" width="39.167" height="39.167" rx="6.25" ry="6.25"/>
  <g>
    <path class="cls-13" d="M20,18.459c-2.786,0-7.5-.454-7.5-2.153s4.714-2.153,7.5-2.153,7.5.454,7.5,2.153-4.714,2.153-7.5,2.153ZM20,15.153c-3.989,0-6.32.757-6.504,1.181.184.367,2.515,1.125,6.504,1.125s6.32-.758,6.504-1.182c-.184-.367-2.516-1.125-6.504-1.125Z"/>
    <path class="cls-13" d="M20,28.094c-2.786,0-7.5-.453-7.5-2.153v-11.856c0-1.72,4.714-2.179,7.5-2.179s7.5.459,7.5,2.179v11.83c0,1.72-4.714,2.179-7.5,2.179ZM20,12.906c-4.013,0-6.333.77-6.503,1.201l.003,11.834c.185.394,2.52,1.153,6.5,1.153s6.305-.761,6.5-1.194v-11.815c-.167-.409-2.487-1.179-6.5-1.179Z"/>
    <path class="cls-13" d="M20,15.153c-.276,0-.5-.224-.5-.5v-2.247c0-.276.224-.5.5-.5s.5.224.5.5v2.247c0,.276-.224.5-.5.5Z"/>
    <path class="cls-1" d="M17.442,15.256c-.276,0-.5-.224-.5-.5v-2.092c0-.276.224-.5.5-.5s.5.224.5.5v2.092c0,.276-.224.5-.5.5Z"/>
    <path class="cls-5" d="M22.557,15.256c-.276,0-.5-.224-.5-.5v-2.092c0-.276.224-.5.5-.5s.5.224.5.5v2.092c0,.276-.224.5-.5.5Z"/>
    <path class="cls-3" d="M15.169,15.592c-.276,0-.5-.224-.5-.5v-2.221c0-.276.224-.5.5-.5s.5.224.5.5v2.221c0,.276-.224.5-.5.5Z"/>
    <path class="cls-6" d="M24.83,15.592c-.276,0-.5-.224-.5-.5v-2.221c0-.276.224-.5.5-.5s.5.224.5.5v2.221c0,.276-.224.5-.5.5Z"/>
    <path class="cls-12" d="M24.66,26.197c-.276,0-.5-.224-.5-.5v-7.697c0-.276.224-.5.5-.5s.5.224.5.5v7.697c0,.276-.224.5-.5.5Z"/>
    <path class="cls-9" d="M22,26.739c-.276,0-.5-.224-.5-.5v-7.579c0-.276.224-.5.5-.5s.5.224.5.5v7.579c0,.276-.224.5-.5.5Z"/>
    <path class="cls-7" d="M22,20.437c-.238,0-.45-.171-.492-.414-.047-.272.135-.531.407-.579l2.66-.465c.272-.044.531.135.579.407.047.272-.135.531-.407.579l-2.66.465c-.029.005-.058.007-.086.007Z"/>
    <path class="cls-10" d="M22,22.013c-.236,0-.447-.168-.491-.409-.05-.271.129-.532.401-.583l2.66-.491c.278-.049.533.13.583.401.05.271-.129.532-.401.583l-2.66.491c-.031.006-.062.008-.091.008Z"/>
    <path class="cls-2" d="M22,23.563c-.236,0-.447-.168-.491-.409-.05-.271.129-.532.401-.583l2.66-.491c.278-.052.533.13.583.401.05.271-.129.532-.401.583l-2.66.491c-.031.006-.062.008-.091.008Z"/>
    <path class="cls-11" d="M22,25.138c-.237,0-.447-.168-.491-.409-.05-.271.129-.532.401-.583l2.66-.491c.273-.052.533.13.583.401.05.271-.129.532-.401.583l-2.66.491c-.031.006-.062.008-.091.008Z"/>
  </g>
</svg>